%TF.GenerationSoftware,KiCad,Pcbnew,(6.0.9)*%
%TF.CreationDate,2023-03-11T12:53:36-05:00*%
%TF.ProjectId,tinypico-nano-carrier,74696e79-7069-4636-9f2d-6e616e6f2d63,rev?*%
%TF.SameCoordinates,Original*%
%TF.FileFunction,Copper,L2,Bot*%
%TF.FilePolarity,Positive*%
%FSLAX46Y46*%
G04 Gerber Fmt 4.6, Leading zero omitted, Abs format (unit mm)*
G04 Created by KiCad (PCBNEW (6.0.9)) date 2023-03-11 12:53:36*
%MOMM*%
%LPD*%
G01*
G04 APERTURE LIST*
%TA.AperFunction,ComponentPad*%
%ADD10R,1.700000X1.700000*%
%TD*%
%TA.AperFunction,ComponentPad*%
%ADD11O,1.700000X1.700000*%
%TD*%
%TA.AperFunction,ComponentPad*%
%ADD12C,0.650000*%
%TD*%
%TA.AperFunction,ComponentPad*%
%ADD13O,0.900000X1.700000*%
%TD*%
%TA.AperFunction,ComponentPad*%
%ADD14O,0.900000X2.400000*%
%TD*%
%TA.AperFunction,ViaPad*%
%ADD15C,0.800000*%
%TD*%
%TA.AperFunction,Conductor*%
%ADD16C,0.508000*%
%TD*%
%TA.AperFunction,Conductor*%
%ADD17C,0.250000*%
%TD*%
%TA.AperFunction,Conductor*%
%ADD18C,0.200000*%
%TD*%
G04 APERTURE END LIST*
D10*
%TO.P,J1,1,Pin_1*%
%TO.N,/GPIO36*%
X123120000Y-52700000D03*
D11*
%TO.P,J1,2,Pin_2*%
%TO.N,/GPIO37*%
X123120000Y-55240000D03*
%TO.P,J1,3,Pin_3*%
%TO.N,/GPIO38*%
X123120000Y-57780000D03*
%TO.P,J1,4,Pin_4*%
%TO.N,/GPIO39*%
X123120000Y-60320000D03*
%TO.P,J1,5,Pin_5*%
%TO.N,/TX*%
X123120000Y-62860000D03*
%TO.P,J1,6,Pin_6*%
%TO.N,/RX*%
X123120000Y-65400000D03*
%TO.P,J1,7,Pin_7*%
%TO.N,/GPIO9*%
X123120000Y-67940000D03*
%TO.P,J1,8,Pin_8*%
%TO.N,/GPIO0*%
X123120000Y-70480000D03*
%TO.P,J1,9,Pin_9*%
%TO.N,/GPIO21*%
X123120000Y-73020000D03*
%TO.P,J1,10,Pin_10*%
%TO.N,/GPIO22*%
X123120000Y-75560000D03*
%TO.P,J1,11,Pin_11*%
%TO.N,/GPIO5*%
X123120000Y-78100000D03*
%TO.P,J1,12,Pin_12*%
%TO.N,/GPIO18*%
X123120000Y-80640000D03*
%TO.P,J1,13,Pin_13*%
%TO.N,/GPIO19*%
X123120000Y-83180000D03*
%TO.P,J1,14,Pin_14*%
%TO.N,/GPIO23*%
X123120000Y-85720000D03*
%TO.P,J1,15,Pin_15*%
%TO.N,/STAT*%
X123120000Y-88260000D03*
%TO.P,J1,16,Pin_16*%
%TO.N,VBUS*%
X123120000Y-90800000D03*
%TO.P,J1,17,Pin_17*%
%TO.N,+3.3V*%
X123120000Y-93340000D03*
%TD*%
D10*
%TO.P,J2,1,Pin_1*%
%TO.N,GND*%
X102800000Y-52700000D03*
D11*
%TO.P,J2,2,Pin_2*%
%TO.N,/GPIO35*%
X102800000Y-55240000D03*
%TO.P,J2,3,Pin_3*%
%TO.N,/GPIO34*%
X102800000Y-57780000D03*
%TO.P,J2,4,Pin_4*%
%TO.N,/GPIO33*%
X102800000Y-60320000D03*
%TO.P,J2,5,Pin_5*%
%TO.N,/GPIO32*%
X102800000Y-62860000D03*
%TO.P,J2,6,Pin_6*%
%TO.N,/GPIO25*%
X102800000Y-65400000D03*
%TO.P,J2,7,Pin_7*%
%TO.N,/GPIO26*%
X102800000Y-67940000D03*
%TO.P,J2,8,Pin_8*%
%TO.N,/GPIO27*%
X102800000Y-70480000D03*
%TO.P,J2,9,Pin_9*%
%TO.N,/GPIO15*%
X102800000Y-73020000D03*
%TO.P,J2,10,Pin_10*%
%TO.N,/GPIO14*%
X102800000Y-75560000D03*
%TO.P,J2,11,Pin_11*%
%TO.N,/GPIO13*%
X102800000Y-78100000D03*
%TO.P,J2,12,Pin_12*%
%TO.N,/GPIO12*%
X102800000Y-80640000D03*
%TO.P,J2,13,Pin_13*%
%TO.N,/GPIO2*%
X102800000Y-83180000D03*
%TO.P,J2,14,Pin_14*%
%TO.N,/GPIO4*%
X102800000Y-85720000D03*
%TO.P,J2,15,Pin_15*%
%TO.N,/EN*%
X102800000Y-88260000D03*
%TO.P,J2,16,Pin_16*%
%TO.N,/RESET*%
X102800000Y-90800000D03*
%TO.P,J2,17,Pin_17*%
%TO.N,+5V*%
X102800000Y-93340000D03*
%TD*%
D12*
%TO.P,J3,A1,GND*%
%TO.N,GND*%
X109425000Y-95640000D03*
%TO.P,J3,A4,VBUS*%
%TO.N,+5V*%
X110275000Y-95640000D03*
%TO.P,J3,A5,CC1*%
%TO.N,Net-(J3-PadA5)*%
X111125000Y-95640000D03*
%TO.P,J3,A6,D+*%
%TO.N,/USB_D+*%
X111975000Y-95640000D03*
%TO.P,J3,A7,D-*%
%TO.N,/USB_D-*%
X112825000Y-95640000D03*
%TO.P,J3,A8,SBU1*%
%TO.N,unconnected-(J3-PadA8)*%
X113675000Y-95640000D03*
%TO.P,J3,A9,VBUS*%
%TO.N,+5V*%
X114525000Y-95640000D03*
%TO.P,J3,A12,GND*%
%TO.N,GND*%
X115375000Y-95640000D03*
%TO.P,J3,B1,GND*%
X115375000Y-96990000D03*
%TO.P,J3,B4,VBUS*%
%TO.N,+5V*%
X114525000Y-96990000D03*
%TO.P,J3,B5,CC2*%
%TO.N,Net-(J3-PadB5)*%
X113675000Y-96990000D03*
%TO.P,J3,B6,D+*%
%TO.N,/USB_D+*%
X112825000Y-96990000D03*
%TO.P,J3,B7,D-*%
%TO.N,/USB_D-*%
X111975000Y-96990000D03*
%TO.P,J3,B8,SBU2*%
%TO.N,unconnected-(J3-PadB8)*%
X111125000Y-96990000D03*
%TO.P,J3,B9,VBUS*%
%TO.N,+5V*%
X110275000Y-96990000D03*
%TO.P,J3,B12,GND*%
%TO.N,GND*%
X109425000Y-96990000D03*
D13*
%TO.P,J3,S1,SHIELD*%
X108075000Y-100000000D03*
%TO.P,J3,S2*%
%TO.N,N/C*%
X116725000Y-100000000D03*
D14*
%TO.P,J3,S3*%
X108075000Y-96620000D03*
%TO.P,J3,S4*%
X116725000Y-96620000D03*
%TD*%
D15*
%TO.N,+3.3V*%
X108500000Y-82400000D03*
%TO.N,VBUS*%
X106600000Y-77700000D03*
%TO.N,/RESET*%
X114500000Y-79700000D03*
X107400000Y-82300000D03*
%TO.N,/GPIO19*%
X117800000Y-75100000D03*
%TO.N,GND*%
X114500000Y-65000000D03*
X111000000Y-61000000D03*
X119900000Y-97200000D03*
X109700000Y-91800000D03*
X115000000Y-62000000D03*
X114900000Y-86200000D03*
X110000000Y-65000000D03*
%TO.N,/USB_D-*%
X112400000Y-82400000D03*
X113093982Y-93653009D03*
%TO.N,/USB_D+*%
X112200000Y-94100000D03*
X111200000Y-82700000D03*
%TD*%
D16*
%TO.N,+3.3V*%
X112996000Y-81496000D02*
X121000000Y-89500000D01*
X121000000Y-89500000D02*
X121000000Y-91900000D01*
X108500000Y-82400000D02*
X109404000Y-81496000D01*
X121000000Y-91900000D02*
X122440000Y-93340000D01*
X122440000Y-93340000D02*
X123120000Y-93340000D01*
X109404000Y-81496000D02*
X112996000Y-81496000D01*
%TO.N,VBUS*%
X121766000Y-89446000D02*
X123120000Y-90800000D01*
X121766000Y-85466000D02*
X121766000Y-89446000D01*
X106600000Y-77700000D02*
X114000000Y-77700000D01*
X114000000Y-77700000D02*
X121766000Y-85466000D01*
D17*
%TO.N,/RESET*%
X110000000Y-79700000D02*
X114500000Y-79700000D01*
X107400000Y-82300000D02*
X110000000Y-79700000D01*
%TO.N,/GPIO19*%
X117800000Y-77860000D02*
X123120000Y-83180000D01*
X117800000Y-75100000D02*
X117800000Y-77860000D01*
D18*
%TO.N,/USB_D-*%
X113093982Y-93653009D02*
X113093982Y-83093982D01*
X113093982Y-83093982D02*
X112400000Y-82400000D01*
%TO.N,/USB_D+*%
X112200000Y-83700000D02*
X111200000Y-82700000D01*
X112825000Y-96925000D02*
X112825000Y-96990000D01*
X111975000Y-96075000D02*
X112825000Y-96925000D01*
X112200000Y-94100000D02*
X112200000Y-83700000D01*
X111975000Y-95640000D02*
X111975000Y-96075000D01*
%TD*%
%TA.AperFunction,Conductor*%
%TO.N,GND*%
G36*
X121819079Y-51378502D02*
G01*
X121865572Y-51432158D01*
X121875676Y-51502432D01*
X121851784Y-51560065D01*
X121819385Y-51603295D01*
X121768255Y-51739684D01*
X121761500Y-51801866D01*
X121761500Y-53598134D01*
X121768255Y-53660316D01*
X121819385Y-53796705D01*
X121906739Y-53913261D01*
X122023295Y-54000615D01*
X122031704Y-54003767D01*
X122031705Y-54003768D01*
X122140451Y-54044535D01*
X122197216Y-54087176D01*
X122221916Y-54153738D01*
X122206709Y-54223087D01*
X122187316Y-54249568D01*
X122064750Y-54377826D01*
X122060629Y-54382138D01*
X121934743Y-54566680D01*
X121919003Y-54600590D01*
X121846324Y-54757164D01*
X121840688Y-54769305D01*
X121780989Y-54984570D01*
X121757251Y-55206695D01*
X121757548Y-55211848D01*
X121757548Y-55211851D01*
X121763011Y-55306590D01*
X121770110Y-55429715D01*
X121771247Y-55434761D01*
X121771248Y-55434767D01*
X121791119Y-55522939D01*
X121819222Y-55647639D01*
X121903266Y-55854616D01*
X121905965Y-55859020D01*
X122015161Y-56037212D01*
X122019987Y-56045088D01*
X122166250Y-56213938D01*
X122338126Y-56356632D01*
X122408595Y-56397811D01*
X122411445Y-56399476D01*
X122460169Y-56451114D01*
X122473240Y-56520897D01*
X122446509Y-56586669D01*
X122406055Y-56620027D01*
X122393607Y-56626507D01*
X122389474Y-56629610D01*
X122389471Y-56629612D01*
X122365247Y-56647800D01*
X122214965Y-56760635D01*
X122149346Y-56829301D01*
X122064750Y-56917826D01*
X122060629Y-56922138D01*
X121934743Y-57106680D01*
X121919003Y-57140590D01*
X121846324Y-57297164D01*
X121840688Y-57309305D01*
X121780989Y-57524570D01*
X121757251Y-57746695D01*
X121757548Y-57751848D01*
X121757548Y-57751851D01*
X121763011Y-57846590D01*
X121770110Y-57969715D01*
X121771247Y-57974761D01*
X121771248Y-57974767D01*
X121791119Y-58062939D01*
X121819222Y-58187639D01*
X121903266Y-58394616D01*
X121905965Y-58399020D01*
X122015161Y-58577212D01*
X122019987Y-58585088D01*
X122166250Y-58753938D01*
X122338126Y-58896632D01*
X122408595Y-58937811D01*
X122411445Y-58939476D01*
X122460169Y-58991114D01*
X122473240Y-59060897D01*
X122446509Y-59126669D01*
X122406055Y-59160027D01*
X122393607Y-59166507D01*
X122389474Y-59169610D01*
X122389471Y-59169612D01*
X122219100Y-59297530D01*
X122214965Y-59300635D01*
X122149346Y-59369301D01*
X122064750Y-59457826D01*
X122060629Y-59462138D01*
X121934743Y-59646680D01*
X121919003Y-59680590D01*
X121846324Y-59837164D01*
X121840688Y-59849305D01*
X121780989Y-60064570D01*
X121757251Y-60286695D01*
X121757548Y-60291848D01*
X121757548Y-60291851D01*
X121763011Y-60386590D01*
X121770110Y-60509715D01*
X121771247Y-60514761D01*
X121771248Y-60514767D01*
X121791119Y-60602939D01*
X121819222Y-60727639D01*
X121903266Y-60934616D01*
X121905965Y-60939020D01*
X122015161Y-61117212D01*
X122019987Y-61125088D01*
X122166250Y-61293938D01*
X122338126Y-61436632D01*
X122408595Y-61477811D01*
X122411445Y-61479476D01*
X122460169Y-61531114D01*
X122473240Y-61600897D01*
X122446509Y-61666669D01*
X122406055Y-61700027D01*
X122393607Y-61706507D01*
X122389474Y-61709610D01*
X122389471Y-61709612D01*
X122365247Y-61727800D01*
X122214965Y-61840635D01*
X122149346Y-61909301D01*
X122064750Y-61997826D01*
X122060629Y-62002138D01*
X121934743Y-62186680D01*
X121919003Y-62220590D01*
X121846324Y-62377164D01*
X121840688Y-62389305D01*
X121780989Y-62604570D01*
X121757251Y-62826695D01*
X121757548Y-62831848D01*
X121757548Y-62831851D01*
X121763011Y-62926590D01*
X121770110Y-63049715D01*
X121771247Y-63054761D01*
X121771248Y-63054767D01*
X121791119Y-63142939D01*
X121819222Y-63267639D01*
X121903266Y-63474616D01*
X121905965Y-63479020D01*
X122015161Y-63657212D01*
X122019987Y-63665088D01*
X122166250Y-63833938D01*
X122338126Y-63976632D01*
X122408595Y-64017811D01*
X122411445Y-64019476D01*
X122460169Y-64071114D01*
X122473240Y-64140897D01*
X122446509Y-64206669D01*
X122406055Y-64240027D01*
X122393607Y-64246507D01*
X122389474Y-64249610D01*
X122389471Y-64249612D01*
X122365247Y-64267800D01*
X122214965Y-64380635D01*
X122149346Y-64449301D01*
X122064750Y-64537826D01*
X122060629Y-64542138D01*
X121934743Y-64726680D01*
X121919003Y-64760590D01*
X121846324Y-64917164D01*
X121840688Y-64929305D01*
X121780989Y-65144570D01*
X121757251Y-65366695D01*
X121757548Y-65371848D01*
X121757548Y-65371851D01*
X121763011Y-65466590D01*
X121770110Y-65589715D01*
X121771247Y-65594761D01*
X121771248Y-65594767D01*
X121791119Y-65682939D01*
X121819222Y-65807639D01*
X121903266Y-66014616D01*
X121905965Y-66019020D01*
X122015161Y-66197212D01*
X122019987Y-66205088D01*
X122166250Y-66373938D01*
X122338126Y-66516632D01*
X122408595Y-66557811D01*
X122411445Y-66559476D01*
X122460169Y-66611114D01*
X122473240Y-66680897D01*
X122446509Y-66746669D01*
X122406055Y-66780027D01*
X122393607Y-66786507D01*
X122389474Y-66789610D01*
X122389471Y-66789612D01*
X122365247Y-66807800D01*
X122214965Y-66920635D01*
X122149346Y-66989301D01*
X122064750Y-67077826D01*
X122060629Y-67082138D01*
X121934743Y-67266680D01*
X121919003Y-67300590D01*
X121846324Y-67457164D01*
X121840688Y-67469305D01*
X121780989Y-67684570D01*
X121757251Y-67906695D01*
X121757548Y-67911848D01*
X121757548Y-67911851D01*
X121763011Y-68006590D01*
X121770110Y-68129715D01*
X121771247Y-68134761D01*
X121771248Y-68134767D01*
X121791119Y-68222939D01*
X121819222Y-68347639D01*
X121903266Y-68554616D01*
X121905965Y-68559020D01*
X122015161Y-68737212D01*
X122019987Y-68745088D01*
X122166250Y-68913938D01*
X122338126Y-69056632D01*
X122408595Y-69097811D01*
X122411445Y-69099476D01*
X122460169Y-69151114D01*
X122473240Y-69220897D01*
X122446509Y-69286669D01*
X122406055Y-69320027D01*
X122393607Y-69326507D01*
X122389474Y-69329610D01*
X122389471Y-69329612D01*
X122365247Y-69347800D01*
X122214965Y-69460635D01*
X122149346Y-69529301D01*
X122064750Y-69617826D01*
X122060629Y-69622138D01*
X121934743Y-69806680D01*
X121919003Y-69840590D01*
X121846324Y-69997164D01*
X121840688Y-70009305D01*
X121780989Y-70224570D01*
X121757251Y-70446695D01*
X121757548Y-70451848D01*
X121757548Y-70451851D01*
X121763011Y-70546590D01*
X121770110Y-70669715D01*
X121771247Y-70674761D01*
X121771248Y-70674767D01*
X121791119Y-70762939D01*
X121819222Y-70887639D01*
X121903266Y-71094616D01*
X121905965Y-71099020D01*
X122015161Y-71277212D01*
X122019987Y-71285088D01*
X122166250Y-71453938D01*
X122338126Y-71596632D01*
X122408595Y-71637811D01*
X122411445Y-71639476D01*
X122460169Y-71691114D01*
X122473240Y-71760897D01*
X122446509Y-71826669D01*
X122406055Y-71860027D01*
X122393607Y-71866507D01*
X122389474Y-71869610D01*
X122389471Y-71869612D01*
X122365247Y-71887800D01*
X122214965Y-72000635D01*
X122149346Y-72069301D01*
X122064750Y-72157826D01*
X122060629Y-72162138D01*
X121934743Y-72346680D01*
X121919003Y-72380590D01*
X121846324Y-72537164D01*
X121840688Y-72549305D01*
X121780989Y-72764570D01*
X121757251Y-72986695D01*
X121757548Y-72991848D01*
X121757548Y-72991851D01*
X121763011Y-73086590D01*
X121770110Y-73209715D01*
X121771247Y-73214761D01*
X121771248Y-73214767D01*
X121791119Y-73302939D01*
X121819222Y-73427639D01*
X121903266Y-73634616D01*
X121905965Y-73639020D01*
X122015161Y-73817212D01*
X122019987Y-73825088D01*
X122166250Y-73993938D01*
X122338126Y-74136632D01*
X122408595Y-74177811D01*
X122411445Y-74179476D01*
X122460169Y-74231114D01*
X122473240Y-74300897D01*
X122446509Y-74366669D01*
X122406055Y-74400027D01*
X122393607Y-74406507D01*
X122389474Y-74409610D01*
X122389471Y-74409612D01*
X122365247Y-74427800D01*
X122214965Y-74540635D01*
X122188075Y-74568774D01*
X122064750Y-74697826D01*
X122060629Y-74702138D01*
X121934743Y-74886680D01*
X121919003Y-74920590D01*
X121846324Y-75077164D01*
X121840688Y-75089305D01*
X121780989Y-75304570D01*
X121757251Y-75526695D01*
X121757548Y-75531848D01*
X121757548Y-75531851D01*
X121763011Y-75626590D01*
X121770110Y-75749715D01*
X121771247Y-75754761D01*
X121771248Y-75754767D01*
X121782011Y-75802524D01*
X121819222Y-75967639D01*
X121903266Y-76174616D01*
X121905965Y-76179020D01*
X122015161Y-76357212D01*
X122019987Y-76365088D01*
X122166250Y-76533938D01*
X122338126Y-76676632D01*
X122408595Y-76717811D01*
X122411445Y-76719476D01*
X122460169Y-76771114D01*
X122473240Y-76840897D01*
X122446509Y-76906669D01*
X122406055Y-76940027D01*
X122393607Y-76946507D01*
X122389474Y-76949610D01*
X122389471Y-76949612D01*
X122219100Y-77077530D01*
X122214965Y-77080635D01*
X122188015Y-77108837D01*
X122064750Y-77237826D01*
X122060629Y-77242138D01*
X121934743Y-77426680D01*
X121919003Y-77460590D01*
X121846324Y-77617164D01*
X121840688Y-77629305D01*
X121780989Y-77844570D01*
X121757251Y-78066695D01*
X121757548Y-78071848D01*
X121757548Y-78071851D01*
X121765704Y-78213307D01*
X121770110Y-78289715D01*
X121771247Y-78294761D01*
X121771248Y-78294767D01*
X121790201Y-78378866D01*
X121819222Y-78507639D01*
X121903266Y-78714616D01*
X121954019Y-78797438D01*
X122015161Y-78897212D01*
X122019987Y-78905088D01*
X122166250Y-79073938D01*
X122338126Y-79216632D01*
X122379206Y-79240637D01*
X122411445Y-79259476D01*
X122460169Y-79311114D01*
X122473240Y-79380897D01*
X122446509Y-79446669D01*
X122406055Y-79480027D01*
X122393607Y-79486507D01*
X122389474Y-79489610D01*
X122389471Y-79489612D01*
X122365247Y-79507800D01*
X122214965Y-79620635D01*
X122149346Y-79689301D01*
X122064750Y-79777826D01*
X122060629Y-79782138D01*
X121934743Y-79966680D01*
X121919003Y-80000590D01*
X121846324Y-80157164D01*
X121840688Y-80169305D01*
X121780989Y-80384570D01*
X121757251Y-80606695D01*
X121757548Y-80611853D01*
X121757422Y-80617024D01*
X121755914Y-80616987D01*
X121741410Y-80679485D01*
X121690518Y-80728988D01*
X121620942Y-80743118D01*
X121554771Y-80717389D01*
X121542574Y-80706670D01*
X120113278Y-79277373D01*
X118470405Y-77634500D01*
X118436379Y-77572188D01*
X118433500Y-77545405D01*
X118433500Y-75802524D01*
X118453502Y-75734403D01*
X118465858Y-75718221D01*
X118539040Y-75636944D01*
X118634527Y-75471556D01*
X118693542Y-75289928D01*
X118713504Y-75100000D01*
X118711104Y-75077164D01*
X118694232Y-74916635D01*
X118694232Y-74916633D01*
X118693542Y-74910072D01*
X118634527Y-74728444D01*
X118539040Y-74563056D01*
X118411253Y-74421134D01*
X118256752Y-74308882D01*
X118250724Y-74306198D01*
X118250722Y-74306197D01*
X118088319Y-74233891D01*
X118088318Y-74233891D01*
X118082288Y-74231206D01*
X117988887Y-74211353D01*
X117901944Y-74192872D01*
X117901939Y-74192872D01*
X117895487Y-74191500D01*
X117704513Y-74191500D01*
X117698061Y-74192872D01*
X117698056Y-74192872D01*
X117611113Y-74211353D01*
X117517712Y-74231206D01*
X117511682Y-74233891D01*
X117511681Y-74233891D01*
X117349278Y-74306197D01*
X117349276Y-74306198D01*
X117343248Y-74308882D01*
X117188747Y-74421134D01*
X117060960Y-74563056D01*
X116965473Y-74728444D01*
X116906458Y-74910072D01*
X116905768Y-74916633D01*
X116905768Y-74916635D01*
X116888896Y-75077164D01*
X116886496Y-75100000D01*
X116906458Y-75289928D01*
X116965473Y-75471556D01*
X117060960Y-75636944D01*
X117134137Y-75718215D01*
X117164853Y-75782221D01*
X117166500Y-75802524D01*
X117166500Y-77781233D01*
X117165973Y-77792416D01*
X117164298Y-77799909D01*
X117164547Y-77807835D01*
X117164547Y-77807836D01*
X117166438Y-77867986D01*
X117166500Y-77871945D01*
X117166500Y-77899856D01*
X117166997Y-77903790D01*
X117166997Y-77903791D01*
X117167005Y-77903856D01*
X117167938Y-77915693D01*
X117169327Y-77959889D01*
X117174978Y-77979339D01*
X117178987Y-77998700D01*
X117181526Y-78018797D01*
X117184445Y-78026168D01*
X117184445Y-78026170D01*
X117197804Y-78059912D01*
X117201649Y-78071142D01*
X117211771Y-78105983D01*
X117213982Y-78113593D01*
X117218015Y-78120412D01*
X117218017Y-78120417D01*
X117224293Y-78131028D01*
X117232988Y-78148776D01*
X117240448Y-78167617D01*
X117245110Y-78174033D01*
X117245110Y-78174034D01*
X117266436Y-78203387D01*
X117272952Y-78213307D01*
X117289834Y-78241852D01*
X117295458Y-78251362D01*
X117309779Y-78265683D01*
X117322619Y-78280716D01*
X117334528Y-78297107D01*
X117340634Y-78302158D01*
X117368605Y-78325298D01*
X117377384Y-78333288D01*
X121769778Y-82725682D01*
X121803804Y-82787994D01*
X121802100Y-82848448D01*
X121780989Y-82924570D01*
X121780441Y-82929700D01*
X121780440Y-82929704D01*
X121770654Y-83021281D01*
X121757251Y-83146695D01*
X121757548Y-83151848D01*
X121757548Y-83151851D01*
X121763011Y-83246590D01*
X121770110Y-83369715D01*
X121771247Y-83374761D01*
X121771248Y-83374767D01*
X121772172Y-83378866D01*
X121819222Y-83587639D01*
X121903266Y-83794616D01*
X121905965Y-83799020D01*
X122015161Y-83977212D01*
X122019987Y-83985088D01*
X122166250Y-84153938D01*
X122338126Y-84296632D01*
X122408595Y-84337811D01*
X122411445Y-84339476D01*
X122460169Y-84391114D01*
X122473240Y-84460897D01*
X122446509Y-84526669D01*
X122406055Y-84560027D01*
X122393607Y-84566507D01*
X122389474Y-84569610D01*
X122389471Y-84569612D01*
X122369512Y-84584598D01*
X122224726Y-84693307D01*
X122158242Y-84718212D01*
X122088847Y-84703220D01*
X122059979Y-84681641D01*
X114586810Y-77208472D01*
X114574423Y-77194059D01*
X114565795Y-77182335D01*
X114561454Y-77176436D01*
X114520945Y-77142021D01*
X114513429Y-77135091D01*
X114507685Y-77129347D01*
X114504811Y-77127073D01*
X114504804Y-77127067D01*
X114485289Y-77111628D01*
X114481885Y-77108837D01*
X114431528Y-77066055D01*
X114431524Y-77066052D01*
X114425949Y-77061316D01*
X114419432Y-77057988D01*
X114414368Y-77054611D01*
X114409144Y-77051384D01*
X114403400Y-77046840D01*
X114377109Y-77034552D01*
X114336918Y-77015768D01*
X114332967Y-77013837D01*
X114274117Y-76983787D01*
X114267596Y-76980457D01*
X114260481Y-76978716D01*
X114254735Y-76976579D01*
X114248952Y-76974655D01*
X114242321Y-76971556D01*
X114170443Y-76956606D01*
X114166171Y-76955639D01*
X114094888Y-76938196D01*
X114089289Y-76937849D01*
X114089285Y-76937848D01*
X114083670Y-76937500D01*
X114083672Y-76937461D01*
X114079771Y-76937228D01*
X114075412Y-76936839D01*
X114068244Y-76935348D01*
X114060927Y-76935546D01*
X113990423Y-76937454D01*
X113987014Y-76937500D01*
X107137081Y-76937500D01*
X107068960Y-76917498D01*
X107063020Y-76913436D01*
X107062094Y-76912763D01*
X107062093Y-76912762D01*
X107056752Y-76908882D01*
X107050724Y-76906198D01*
X107050722Y-76906197D01*
X106888319Y-76833891D01*
X106888318Y-76833891D01*
X106882288Y-76831206D01*
X106788888Y-76811353D01*
X106701944Y-76792872D01*
X106701939Y-76792872D01*
X106695487Y-76791500D01*
X106504513Y-76791500D01*
X106498061Y-76792872D01*
X106498056Y-76792872D01*
X106411112Y-76811353D01*
X106317712Y-76831206D01*
X106311682Y-76833891D01*
X106311681Y-76833891D01*
X106149278Y-76906197D01*
X106149276Y-76906198D01*
X106143248Y-76908882D01*
X106137907Y-76912762D01*
X106137906Y-76912763D01*
X106103859Y-76937500D01*
X105988747Y-77021134D01*
X105984326Y-77026044D01*
X105984325Y-77026045D01*
X105893365Y-77127067D01*
X105860960Y-77163056D01*
X105815302Y-77242138D01*
X105800211Y-77268277D01*
X105765473Y-77328444D01*
X105706458Y-77510072D01*
X105686496Y-77700000D01*
X105687186Y-77706565D01*
X105705680Y-77882522D01*
X105706458Y-77889928D01*
X105765473Y-78071556D01*
X105860960Y-78236944D01*
X105988747Y-78378866D01*
X106087843Y-78450864D01*
X106136672Y-78486340D01*
X106143248Y-78491118D01*
X106149276Y-78493802D01*
X106149278Y-78493803D01*
X106311681Y-78566109D01*
X106317712Y-78568794D01*
X106410021Y-78588415D01*
X106498056Y-78607128D01*
X106498061Y-78607128D01*
X106504513Y-78608500D01*
X106695487Y-78608500D01*
X106701939Y-78607128D01*
X106701944Y-78607128D01*
X106789979Y-78588415D01*
X106882288Y-78568794D01*
X106888319Y-78566109D01*
X107050722Y-78493803D01*
X107050724Y-78493802D01*
X107056752Y-78491118D01*
X107063020Y-78486564D01*
X107063646Y-78486340D01*
X107067811Y-78483936D01*
X107068251Y-78484698D01*
X107129887Y-78462706D01*
X107137081Y-78462500D01*
X113631972Y-78462500D01*
X113700093Y-78482502D01*
X113721067Y-78499405D01*
X113989492Y-78767830D01*
X114023518Y-78830142D01*
X114018453Y-78900957D01*
X113974458Y-78958861D01*
X113888747Y-79021134D01*
X113884332Y-79026037D01*
X113879420Y-79030460D01*
X113878295Y-79029211D01*
X113824986Y-79062051D01*
X113791800Y-79066500D01*
X110078767Y-79066500D01*
X110067584Y-79065973D01*
X110060091Y-79064298D01*
X110052165Y-79064547D01*
X110052164Y-79064547D01*
X109992014Y-79066438D01*
X109988055Y-79066500D01*
X109960144Y-79066500D01*
X109956210Y-79066997D01*
X109956209Y-79066997D01*
X109956144Y-79067005D01*
X109944307Y-79067938D01*
X109912490Y-79068938D01*
X109908029Y-79069078D01*
X109900110Y-79069327D01*
X109884238Y-79073938D01*
X109880658Y-79074978D01*
X109861306Y-79078986D01*
X109854235Y-79079880D01*
X109841203Y-79081526D01*
X109833834Y-79084443D01*
X109833832Y-79084444D01*
X109800097Y-79097800D01*
X109788869Y-79101645D01*
X109746407Y-79113982D01*
X109739585Y-79118016D01*
X109739579Y-79118019D01*
X109728968Y-79124294D01*
X109711218Y-79132990D01*
X109699756Y-79137528D01*
X109699751Y-79137531D01*
X109692383Y-79140448D01*
X109685968Y-79145109D01*
X109656625Y-79166427D01*
X109646707Y-79172943D01*
X109628019Y-79183995D01*
X109608637Y-79195458D01*
X109594313Y-79209782D01*
X109579281Y-79222621D01*
X109562893Y-79234528D01*
X109542254Y-79259476D01*
X109534712Y-79268593D01*
X109526722Y-79277373D01*
X107449500Y-81354595D01*
X107387188Y-81388621D01*
X107360405Y-81391500D01*
X107304513Y-81391500D01*
X107298061Y-81392872D01*
X107298056Y-81392872D01*
X107211113Y-81411353D01*
X107117712Y-81431206D01*
X107111682Y-81433891D01*
X107111681Y-81433891D01*
X106949278Y-81506197D01*
X106949276Y-81506198D01*
X106943248Y-81508882D01*
X106937907Y-81512762D01*
X106937906Y-81512763D01*
X106928920Y-81519292D01*
X106788747Y-81621134D01*
X106660960Y-81763056D01*
X106657659Y-81768774D01*
X106576599Y-81909174D01*
X106565473Y-81928444D01*
X106506458Y-82110072D01*
X106505768Y-82116633D01*
X106505768Y-82116635D01*
X106487937Y-82286293D01*
X106486496Y-82300000D01*
X106506458Y-82489928D01*
X106565473Y-82671556D01*
X106660960Y-82836944D01*
X106665378Y-82841851D01*
X106665379Y-82841852D01*
X106708667Y-82889928D01*
X106788747Y-82978866D01*
X106887843Y-83050864D01*
X106926385Y-83078866D01*
X106943248Y-83091118D01*
X106949276Y-83093802D01*
X106949278Y-83093803D01*
X107079657Y-83151851D01*
X107117712Y-83168794D01*
X107186263Y-83183365D01*
X107298056Y-83207128D01*
X107298061Y-83207128D01*
X107304513Y-83208500D01*
X107495487Y-83208500D01*
X107501939Y-83207128D01*
X107501944Y-83207128D01*
X107613737Y-83183365D01*
X107682288Y-83168794D01*
X107688315Y-83166111D01*
X107688323Y-83166108D01*
X107820590Y-83107219D01*
X107890957Y-83097785D01*
X107945899Y-83120390D01*
X108014410Y-83170166D01*
X108043248Y-83191118D01*
X108049276Y-83193802D01*
X108049278Y-83193803D01*
X108175293Y-83249908D01*
X108217712Y-83268794D01*
X108311113Y-83288647D01*
X108398056Y-83307128D01*
X108398061Y-83307128D01*
X108404513Y-83308500D01*
X108595487Y-83308500D01*
X108601939Y-83307128D01*
X108601944Y-83307128D01*
X108688887Y-83288647D01*
X108782288Y-83268794D01*
X108824707Y-83249908D01*
X108950722Y-83193803D01*
X108950724Y-83193802D01*
X108956752Y-83191118D01*
X109111253Y-83078866D01*
X109205715Y-82973955D01*
X109234621Y-82941852D01*
X109234622Y-82941851D01*
X109239040Y-82936944D01*
X109300076Y-82831226D01*
X109331223Y-82777279D01*
X109331224Y-82777278D01*
X109334527Y-82771556D01*
X109386665Y-82611093D01*
X109417403Y-82560935D01*
X109682933Y-82295405D01*
X109745245Y-82261379D01*
X109772028Y-82258500D01*
X110214775Y-82258500D01*
X110282896Y-82278502D01*
X110329389Y-82332158D01*
X110339493Y-82402432D01*
X110334608Y-82423436D01*
X110306458Y-82510072D01*
X110286496Y-82700000D01*
X110287186Y-82706565D01*
X110302099Y-82848451D01*
X110306458Y-82889928D01*
X110365473Y-83071556D01*
X110460960Y-83236944D01*
X110588747Y-83378866D01*
X110743248Y-83491118D01*
X110749276Y-83493802D01*
X110749278Y-83493803D01*
X110911681Y-83566109D01*
X110917712Y-83568794D01*
X110994002Y-83585010D01*
X111098056Y-83607128D01*
X111098061Y-83607128D01*
X111104513Y-83608500D01*
X111195761Y-83608500D01*
X111263882Y-83628502D01*
X111284856Y-83645405D01*
X111554595Y-83915144D01*
X111588621Y-83977456D01*
X111591500Y-84004239D01*
X111591500Y-93369710D01*
X111571498Y-93437831D01*
X111559136Y-93454020D01*
X111545068Y-93469644D01*
X111460960Y-93563056D01*
X111365473Y-93728444D01*
X111306458Y-93910072D01*
X111286496Y-94100000D01*
X111287186Y-94106565D01*
X111303393Y-94260763D01*
X111306458Y-94289928D01*
X111365473Y-94471556D01*
X111460883Y-94636810D01*
X111460960Y-94636944D01*
X111460936Y-94636958D01*
X111483939Y-94701422D01*
X111467861Y-94770574D01*
X111416949Y-94820056D01*
X111347367Y-94834158D01*
X111331948Y-94831867D01*
X111219061Y-94807872D01*
X111219057Y-94807872D01*
X111212604Y-94806500D01*
X111037396Y-94806500D01*
X111030943Y-94807872D01*
X111030939Y-94807872D01*
X110973620Y-94820056D01*
X110866016Y-94842928D01*
X110859987Y-94845613D01*
X110859985Y-94845613D01*
X110814890Y-94865691D01*
X110751248Y-94894026D01*
X110680882Y-94903460D01*
X110648755Y-94894027D01*
X110558226Y-94853721D01*
X110540015Y-94845613D01*
X110540014Y-94845613D01*
X110533984Y-94842928D01*
X110426380Y-94820056D01*
X110369061Y-94807872D01*
X110369057Y-94807872D01*
X110362604Y-94806500D01*
X110187396Y-94806500D01*
X110180943Y-94807872D01*
X110180939Y-94807872D01*
X110123620Y-94820056D01*
X110016016Y-94842928D01*
X110009987Y-94845613D01*
X110009985Y-94845613D01*
X109900633Y-94894300D01*
X109830266Y-94903734D01*
X109798135Y-94894299D01*
X109689868Y-94846095D01*
X109677367Y-94842033D01*
X109519009Y-94808372D01*
X109505949Y-94807000D01*
X109344051Y-94807000D01*
X109330991Y-94808372D01*
X109172629Y-94842033D01*
X109160137Y-94846093D01*
X109059174Y-94891045D01*
X109048428Y-94900179D01*
X109050025Y-94905815D01*
X109438573Y-95294363D01*
X109472599Y-95356675D01*
X109469310Y-95422396D01*
X109455223Y-95465751D01*
X109454533Y-95472317D01*
X109454532Y-95472321D01*
X109437680Y-95632663D01*
X109436909Y-95640000D01*
X109440722Y-95676273D01*
X109443304Y-95700843D01*
X109430532Y-95770682D01*
X109382030Y-95822528D01*
X109313197Y-95839923D01*
X109245887Y-95817342D01*
X109228899Y-95803109D01*
X109002633Y-95576843D01*
X108971494Y-95525427D01*
X108962445Y-95496551D01*
X108962442Y-95496543D01*
X108960535Y-95490459D01*
X108957444Y-95484882D01*
X108869223Y-95325729D01*
X108869221Y-95325726D01*
X108866130Y-95320150D01*
X108861981Y-95315309D01*
X108861978Y-95315305D01*
X108743560Y-95177145D01*
X108739409Y-95172302D01*
X108707283Y-95147382D01*
X108590594Y-95056869D01*
X108585547Y-95052954D01*
X108579824Y-95050138D01*
X108579821Y-95050136D01*
X108416556Y-94969800D01*
X108410829Y-94966982D01*
X108404651Y-94965373D01*
X108404649Y-94965372D01*
X108228575Y-94919508D01*
X108228572Y-94919508D01*
X108222393Y-94917898D01*
X108138403Y-94913496D01*
X108034317Y-94908041D01*
X108034313Y-94908041D01*
X108027936Y-94907707D01*
X107872587Y-94931201D01*
X107841715Y-94935870D01*
X107841714Y-94935870D01*
X107835401Y-94936825D01*
X107829415Y-94939028D01*
X107829409Y-94939029D01*
X107658640Y-95001860D01*
X107658635Y-95001862D01*
X107652654Y-95004063D01*
X107487160Y-95106674D01*
X107482527Y-95111055D01*
X107482526Y-95111056D01*
X107350315Y-95236081D01*
X107345678Y-95240466D01*
X107342016Y-95245696D01*
X107342015Y-95245697D01*
X107293275Y-95315305D01*
X107233989Y-95399975D01*
X107231452Y-95405838D01*
X107174691Y-95537006D01*
X107156655Y-95578684D01*
X107155350Y-95584931D01*
X107155349Y-95584934D01*
X107131135Y-95700843D01*
X107116835Y-95769293D01*
X107116500Y-95775685D01*
X107116500Y-97418663D01*
X107131235Y-97563727D01*
X107133144Y-97569818D01*
X107187556Y-97743451D01*
X107187558Y-97743456D01*
X107189465Y-97749541D01*
X107283870Y-97919850D01*
X107288019Y-97924691D01*
X107288022Y-97924695D01*
X107347684Y-97994303D01*
X107410591Y-98067698D01*
X107564453Y-98187046D01*
X107570176Y-98189862D01*
X107570179Y-98189864D01*
X107733444Y-98270200D01*
X107739171Y-98273018D01*
X107745349Y-98274627D01*
X107745351Y-98274628D01*
X107921425Y-98320492D01*
X107921428Y-98320492D01*
X107927607Y-98322102D01*
X108011597Y-98326504D01*
X108115683Y-98331959D01*
X108115687Y-98331959D01*
X108122064Y-98332293D01*
X108277413Y-98308799D01*
X108308285Y-98304130D01*
X108308286Y-98304130D01*
X108314599Y-98303175D01*
X108320585Y-98300972D01*
X108320591Y-98300971D01*
X108491360Y-98238140D01*
X108491365Y-98238138D01*
X108497346Y-98235937D01*
X108662840Y-98133326D01*
X108737362Y-98062855D01*
X108799685Y-98003919D01*
X108804322Y-97999534D01*
X108916011Y-97840025D01*
X108923379Y-97823000D01*
X108925242Y-97818694D01*
X108970652Y-97764120D01*
X109038359Y-97742759D01*
X109092128Y-97753627D01*
X109160140Y-97783908D01*
X109172633Y-97787967D01*
X109330991Y-97821628D01*
X109344051Y-97823000D01*
X109505949Y-97823000D01*
X109519009Y-97821628D01*
X109677367Y-97787967D01*
X109689868Y-97783905D01*
X109798135Y-97735701D01*
X109868502Y-97726266D01*
X109900631Y-97735699D01*
X109964465Y-97764120D01*
X110008910Y-97783908D01*
X110016016Y-97787072D01*
X110101706Y-97805286D01*
X110180939Y-97822128D01*
X110180943Y-97822128D01*
X110187396Y-97823500D01*
X110362604Y-97823500D01*
X110369057Y-97822128D01*
X110369061Y-97822128D01*
X110448294Y-97805286D01*
X110533984Y-97787072D01*
X110540011Y-97784389D01*
X110540019Y-97784386D01*
X110648752Y-97735975D01*
X110719119Y-97726541D01*
X110751248Y-97735975D01*
X110859981Y-97784386D01*
X110859989Y-97784389D01*
X110866016Y-97787072D01*
X110951706Y-97805286D01*
X111030939Y-97822128D01*
X111030943Y-97822128D01*
X111037396Y-97823500D01*
X111212604Y-97823500D01*
X111219057Y-97822128D01*
X111219061Y-97822128D01*
X111298294Y-97805286D01*
X111383984Y-97787072D01*
X111390011Y-97784389D01*
X111390019Y-97784386D01*
X111498752Y-97735975D01*
X111569119Y-97726541D01*
X111601248Y-97735975D01*
X111709981Y-97784386D01*
X111709989Y-97784389D01*
X111716016Y-97787072D01*
X111801706Y-97805286D01*
X111880939Y-97822128D01*
X111880943Y-97822128D01*
X111887396Y-97823500D01*
X112062604Y-97823500D01*
X112069057Y-97822128D01*
X112069061Y-97822128D01*
X112148294Y-97805286D01*
X112233984Y-97787072D01*
X112240011Y-97784389D01*
X112240019Y-97784386D01*
X112348752Y-97735975D01*
X112419119Y-97726541D01*
X112451248Y-97735975D01*
X112559981Y-97784386D01*
X112559989Y-97784389D01*
X112566016Y-97787072D01*
X112651706Y-97805286D01*
X112730939Y-97822128D01*
X112730943Y-97822128D01*
X112737396Y-97823500D01*
X112912604Y-97823500D01*
X112919057Y-97822128D01*
X112919061Y-97822128D01*
X112998294Y-97805286D01*
X113083984Y-97787072D01*
X113090011Y-97784389D01*
X113090019Y-97784386D01*
X113198752Y-97735975D01*
X113269119Y-97726541D01*
X113301248Y-97735975D01*
X113409981Y-97784386D01*
X113409989Y-97784389D01*
X113416016Y-97787072D01*
X113501706Y-97805286D01*
X113580939Y-97822128D01*
X113580943Y-97822128D01*
X113587396Y-97823500D01*
X113762604Y-97823500D01*
X113769057Y-97822128D01*
X113769061Y-97822128D01*
X113848294Y-97805286D01*
X113933984Y-97787072D01*
X113940011Y-97784389D01*
X113940019Y-97784386D01*
X114048752Y-97735975D01*
X114119119Y-97726541D01*
X114151248Y-97735975D01*
X114259981Y-97784386D01*
X114259989Y-97784389D01*
X114266016Y-97787072D01*
X114351706Y-97805286D01*
X114430939Y-97822128D01*
X114430943Y-97822128D01*
X114437396Y-97823500D01*
X114612604Y-97823500D01*
X114619057Y-97822128D01*
X114619061Y-97822128D01*
X114698294Y-97805286D01*
X114783984Y-97787072D01*
X114791091Y-97783908D01*
X114835535Y-97764120D01*
X114899368Y-97735700D01*
X114969734Y-97726266D01*
X115001865Y-97735701D01*
X115110132Y-97783905D01*
X115122633Y-97787967D01*
X115280991Y-97821628D01*
X115294051Y-97823000D01*
X115455949Y-97823000D01*
X115469009Y-97821628D01*
X115627367Y-97787967D01*
X115639864Y-97783906D01*
X115709756Y-97752788D01*
X115780123Y-97743353D01*
X115844421Y-97773459D01*
X115871208Y-97806807D01*
X115889622Y-97840025D01*
X115933870Y-97919850D01*
X115938019Y-97924691D01*
X115938022Y-97924695D01*
X115997684Y-97994303D01*
X116060591Y-98067698D01*
X116214453Y-98187046D01*
X116220176Y-98189862D01*
X116220179Y-98189864D01*
X116383444Y-98270200D01*
X116389171Y-98273018D01*
X116395349Y-98274627D01*
X116395351Y-98274628D01*
X116571425Y-98320492D01*
X116571428Y-98320492D01*
X116577607Y-98322102D01*
X116661597Y-98326504D01*
X116765683Y-98331959D01*
X116765687Y-98331959D01*
X116772064Y-98332293D01*
X116927413Y-98308799D01*
X116958285Y-98304130D01*
X116958286Y-98304130D01*
X116964599Y-98303175D01*
X116970585Y-98300972D01*
X116970591Y-98300971D01*
X117141360Y-98238140D01*
X117141365Y-98238138D01*
X117147346Y-98235937D01*
X117312840Y-98133326D01*
X117387362Y-98062855D01*
X117449685Y-98003919D01*
X117454322Y-97999534D01*
X117566011Y-97840025D01*
X117615239Y-97726266D01*
X117640810Y-97667175D01*
X117640811Y-97667171D01*
X117643345Y-97661316D01*
X117662460Y-97569818D01*
X117682176Y-97475443D01*
X117682177Y-97475438D01*
X117683165Y-97470707D01*
X117683500Y-97464315D01*
X117683500Y-95821337D01*
X117668765Y-95676273D01*
X117651111Y-95619939D01*
X117612444Y-95496549D01*
X117612442Y-95496544D01*
X117610535Y-95490459D01*
X117557477Y-95394741D01*
X117519223Y-95325729D01*
X117519221Y-95325726D01*
X117516130Y-95320150D01*
X117511981Y-95315309D01*
X117511978Y-95315305D01*
X117393560Y-95177145D01*
X117389409Y-95172302D01*
X117357283Y-95147382D01*
X117240594Y-95056869D01*
X117235547Y-95052954D01*
X117229824Y-95050138D01*
X117229821Y-95050136D01*
X117066556Y-94969800D01*
X117060829Y-94966982D01*
X117054651Y-94965373D01*
X117054649Y-94965372D01*
X116878575Y-94919508D01*
X116878572Y-94919508D01*
X116872393Y-94917898D01*
X116788403Y-94913496D01*
X116684317Y-94908041D01*
X116684313Y-94908041D01*
X116677936Y-94907707D01*
X116522587Y-94931201D01*
X116491715Y-94935870D01*
X116491714Y-94935870D01*
X116485401Y-94936825D01*
X116479415Y-94939028D01*
X116479409Y-94939029D01*
X116308640Y-95001860D01*
X116308635Y-95001862D01*
X116302654Y-95004063D01*
X116137160Y-95106674D01*
X116132527Y-95111055D01*
X116132526Y-95111056D01*
X116000315Y-95236081D01*
X115995678Y-95240466D01*
X115992016Y-95245696D01*
X115992015Y-95245697D01*
X115943275Y-95315305D01*
X115883989Y-95399975D01*
X115829702Y-95525427D01*
X115824691Y-95537006D01*
X115798149Y-95576061D01*
X115571101Y-95803109D01*
X115508789Y-95837135D01*
X115437974Y-95832070D01*
X115381138Y-95789523D01*
X115356327Y-95723003D01*
X115356696Y-95700843D01*
X115359279Y-95676273D01*
X115363091Y-95640000D01*
X115362320Y-95632663D01*
X115345468Y-95472321D01*
X115345467Y-95472317D01*
X115344777Y-95465751D01*
X115330690Y-95422396D01*
X115328661Y-95351428D01*
X115361427Y-95294363D01*
X115744564Y-94911226D01*
X115751324Y-94898846D01*
X115747813Y-94894156D01*
X115639863Y-94846093D01*
X115627371Y-94842033D01*
X115469009Y-94808372D01*
X115455949Y-94807000D01*
X115294051Y-94807000D01*
X115280991Y-94808372D01*
X115122633Y-94842033D01*
X115110132Y-94846095D01*
X115001865Y-94894299D01*
X114931498Y-94903734D01*
X114899369Y-94894301D01*
X114808226Y-94853721D01*
X114790015Y-94845613D01*
X114790014Y-94845613D01*
X114783984Y-94842928D01*
X114676380Y-94820056D01*
X114619061Y-94807872D01*
X114619057Y-94807872D01*
X114612604Y-94806500D01*
X114437396Y-94806500D01*
X114430943Y-94807872D01*
X114430939Y-94807872D01*
X114373620Y-94820056D01*
X114266016Y-94842928D01*
X114259987Y-94845613D01*
X114259985Y-94845613D01*
X114214890Y-94865691D01*
X114151248Y-94894026D01*
X114080882Y-94903460D01*
X114048755Y-94894027D01*
X113958226Y-94853721D01*
X113940015Y-94845613D01*
X113940014Y-94845613D01*
X113933984Y-94842928D01*
X113826380Y-94820056D01*
X113769061Y-94807872D01*
X113769057Y-94807872D01*
X113762604Y-94806500D01*
X113587396Y-94806500D01*
X113580943Y-94807872D01*
X113580939Y-94807872D01*
X113523620Y-94820056D01*
X113416016Y-94842928D01*
X113409987Y-94845613D01*
X113409985Y-94845613D01*
X113364890Y-94865691D01*
X113301248Y-94894026D01*
X113230882Y-94903460D01*
X113198755Y-94894027D01*
X113108226Y-94853721D01*
X113090015Y-94845613D01*
X113090014Y-94845613D01*
X113083984Y-94842928D01*
X113017837Y-94828868D01*
X112955364Y-94795140D01*
X112921042Y-94732990D01*
X112925770Y-94662151D01*
X112939180Y-94637028D01*
X112939038Y-94636946D01*
X112939040Y-94636944D01*
X112946220Y-94624508D01*
X112997599Y-94575517D01*
X113055338Y-94561509D01*
X113189469Y-94561509D01*
X113195921Y-94560137D01*
X113195926Y-94560137D01*
X113282869Y-94541656D01*
X113376270Y-94521803D01*
X113382301Y-94519118D01*
X113544704Y-94446812D01*
X113544706Y-94446811D01*
X113550734Y-94444127D01*
X113705235Y-94331875D01*
X113709657Y-94326964D01*
X113828603Y-94194861D01*
X113828604Y-94194860D01*
X113833022Y-94189953D01*
X113915974Y-94046277D01*
X113925205Y-94030288D01*
X113925206Y-94030287D01*
X113928509Y-94024565D01*
X113987524Y-93842937D01*
X113989051Y-93828415D01*
X114006796Y-93659574D01*
X114007486Y-93653009D01*
X113987524Y-93463081D01*
X113928509Y-93281453D01*
X113833022Y-93116065D01*
X113734846Y-93007029D01*
X113704128Y-92943022D01*
X113702482Y-92922719D01*
X113702482Y-83585010D01*
X113722484Y-83516889D01*
X113776140Y-83470396D01*
X113846414Y-83460292D01*
X113910994Y-83489786D01*
X113917577Y-83495915D01*
X120200595Y-89778933D01*
X120234621Y-89841245D01*
X120237500Y-89868028D01*
X120237500Y-91832624D01*
X120236067Y-91851574D01*
X120233876Y-91865973D01*
X120233876Y-91865979D01*
X120232776Y-91873208D01*
X120233369Y-91880500D01*
X120233369Y-91880503D01*
X120237085Y-91926183D01*
X120237500Y-91936398D01*
X120237500Y-91944525D01*
X120240811Y-91972924D01*
X120241238Y-91977244D01*
X120247191Y-92050426D01*
X120249447Y-92057388D01*
X120250643Y-92063376D01*
X120252051Y-92069333D01*
X120252899Y-92076607D01*
X120255397Y-92083489D01*
X120255398Y-92083493D01*
X120277945Y-92145607D01*
X120279355Y-92149711D01*
X120301987Y-92219575D01*
X120305787Y-92225838D01*
X120308325Y-92231380D01*
X120311067Y-92236856D01*
X120313566Y-92243741D01*
X120317581Y-92249865D01*
X120353815Y-92305132D01*
X120356130Y-92308800D01*
X120394227Y-92371581D01*
X120397941Y-92375786D01*
X120397943Y-92375789D01*
X120401667Y-92380005D01*
X120401638Y-92380031D01*
X120404238Y-92382962D01*
X120407042Y-92386316D01*
X120411054Y-92392435D01*
X120416366Y-92397467D01*
X120467586Y-92445988D01*
X120470028Y-92448366D01*
X121835304Y-93813642D01*
X121862951Y-93855332D01*
X121903266Y-93954616D01*
X121905965Y-93959020D01*
X122015161Y-94137212D01*
X122019987Y-94145088D01*
X122166250Y-94313938D01*
X122338126Y-94456632D01*
X122531000Y-94569338D01*
X122739692Y-94649030D01*
X122744760Y-94650061D01*
X122744763Y-94650062D01*
X122804183Y-94662151D01*
X122958597Y-94693567D01*
X122963772Y-94693757D01*
X122963774Y-94693757D01*
X123176673Y-94701564D01*
X123176677Y-94701564D01*
X123181837Y-94701753D01*
X123186957Y-94701097D01*
X123186959Y-94701097D01*
X123398288Y-94674025D01*
X123398289Y-94674025D01*
X123403416Y-94673368D01*
X123440804Y-94662151D01*
X123612429Y-94610661D01*
X123612434Y-94610659D01*
X123617384Y-94609174D01*
X123817994Y-94510896D01*
X123999860Y-94381173D01*
X124158096Y-94223489D01*
X124163177Y-94216418D01*
X124164308Y-94215536D01*
X124164465Y-94215352D01*
X124164503Y-94215384D01*
X124219172Y-94172770D01*
X124289875Y-94166324D01*
X124352840Y-94199127D01*
X124388074Y-94260763D01*
X124391500Y-94289944D01*
X124391500Y-101365500D01*
X124371498Y-101433621D01*
X124317842Y-101480114D01*
X124265500Y-101491500D01*
X117225876Y-101491500D01*
X117157755Y-101471498D01*
X117111262Y-101417842D01*
X117101158Y-101347568D01*
X117130652Y-101282988D01*
X117159479Y-101258414D01*
X117169105Y-101252446D01*
X117312840Y-101163326D01*
X117387362Y-101092855D01*
X117449685Y-101033919D01*
X117454322Y-101029534D01*
X117566011Y-100870025D01*
X117643345Y-100691316D01*
X117662481Y-100599717D01*
X117682176Y-100505443D01*
X117682177Y-100505438D01*
X117683165Y-100500707D01*
X117683500Y-100494315D01*
X117683500Y-99551337D01*
X117668765Y-99406273D01*
X117640188Y-99315083D01*
X117612444Y-99226549D01*
X117612442Y-99226544D01*
X117610535Y-99220459D01*
X117557477Y-99124741D01*
X117519223Y-99055729D01*
X117519221Y-99055726D01*
X117516130Y-99050150D01*
X117511981Y-99045309D01*
X117511978Y-99045305D01*
X117393560Y-98907145D01*
X117389409Y-98902302D01*
X117235547Y-98782954D01*
X117229824Y-98780138D01*
X117229821Y-98780136D01*
X117066556Y-98699800D01*
X117060829Y-98696982D01*
X117054651Y-98695373D01*
X117054649Y-98695372D01*
X116878575Y-98649508D01*
X116878572Y-98649508D01*
X116872393Y-98647898D01*
X116788403Y-98643496D01*
X116684317Y-98638041D01*
X116684313Y-98638041D01*
X116677936Y-98637707D01*
X116522587Y-98661201D01*
X116491715Y-98665870D01*
X116491714Y-98665870D01*
X116485401Y-98666825D01*
X116479415Y-98669028D01*
X116479409Y-98669029D01*
X116308640Y-98731860D01*
X116308635Y-98731862D01*
X116302654Y-98734063D01*
X116137160Y-98836674D01*
X116132527Y-98841055D01*
X116132526Y-98841056D01*
X116062254Y-98907509D01*
X115995678Y-98970466D01*
X115883989Y-99129975D01*
X115806655Y-99308684D01*
X115805350Y-99314931D01*
X115805349Y-99314934D01*
X115786268Y-99406273D01*
X115766835Y-99499293D01*
X115766500Y-99505685D01*
X115766500Y-100448663D01*
X115781235Y-100593727D01*
X115783144Y-100599818D01*
X115837556Y-100773451D01*
X115837558Y-100773456D01*
X115839465Y-100779541D01*
X115842558Y-100785120D01*
X115930616Y-100943979D01*
X115933870Y-100949850D01*
X115938019Y-100954691D01*
X115938022Y-100954695D01*
X116005926Y-101033919D01*
X116060591Y-101097698D01*
X116214453Y-101217046D01*
X116220183Y-101219866D01*
X116220187Y-101219868D01*
X116286393Y-101252446D01*
X116338684Y-101300468D01*
X116356710Y-101369138D01*
X116334750Y-101436653D01*
X116279774Y-101481577D01*
X116230763Y-101491500D01*
X108574929Y-101491500D01*
X108506808Y-101471498D01*
X108460315Y-101417842D01*
X108450211Y-101347568D01*
X108479705Y-101282988D01*
X108508532Y-101258414D01*
X108657108Y-101166292D01*
X108667174Y-101158540D01*
X108799303Y-101033592D01*
X108807605Y-101023974D01*
X108911908Y-100875013D01*
X108918108Y-100863919D01*
X108990332Y-100697020D01*
X108994171Y-100684917D01*
X109031675Y-100505400D01*
X109032915Y-100495848D01*
X109033000Y-100492616D01*
X109033000Y-100272115D01*
X109028525Y-100256876D01*
X109027135Y-100255671D01*
X109019452Y-100254000D01*
X107135115Y-100254000D01*
X107119876Y-100258475D01*
X107118671Y-100259865D01*
X107117000Y-100267548D01*
X107117000Y-100445447D01*
X107117323Y-100451822D01*
X107131082Y-100587277D01*
X107133636Y-100599717D01*
X107188016Y-100773244D01*
X107193025Y-100784932D01*
X107281187Y-100943979D01*
X107288438Y-100954412D01*
X107406785Y-101092491D01*
X107415976Y-101101244D01*
X107559680Y-101212711D01*
X107570440Y-101219435D01*
X107637525Y-101252445D01*
X107689816Y-101300468D01*
X107707842Y-101369138D01*
X107685882Y-101436653D01*
X107630906Y-101481577D01*
X107581895Y-101491500D01*
X101634500Y-101491500D01*
X101566379Y-101471498D01*
X101519886Y-101417842D01*
X101508500Y-101365500D01*
X101508500Y-99727885D01*
X107117000Y-99727885D01*
X107121475Y-99743124D01*
X107122865Y-99744329D01*
X107130548Y-99746000D01*
X107802885Y-99746000D01*
X107818124Y-99741525D01*
X107819329Y-99740135D01*
X107821000Y-99732452D01*
X107821000Y-99727885D01*
X108329000Y-99727885D01*
X108333475Y-99743124D01*
X108334865Y-99744329D01*
X108342548Y-99746000D01*
X109014885Y-99746000D01*
X109030124Y-99741525D01*
X109031329Y-99740135D01*
X109033000Y-99732452D01*
X109033000Y-99554553D01*
X109032677Y-99548178D01*
X109018918Y-99412723D01*
X109016364Y-99400283D01*
X108961984Y-99226756D01*
X108956975Y-99215068D01*
X108868813Y-99056021D01*
X108861562Y-99045588D01*
X108743215Y-98907509D01*
X108734024Y-98898756D01*
X108590320Y-98787289D01*
X108579560Y-98780565D01*
X108416375Y-98700268D01*
X108404481Y-98695845D01*
X108346530Y-98680749D01*
X108332436Y-98681183D01*
X108329000Y-98689364D01*
X108329000Y-99727885D01*
X107821000Y-99727885D01*
X107821000Y-98690771D01*
X107817027Y-98677240D01*
X107810925Y-98676363D01*
X107658864Y-98732310D01*
X107647451Y-98737877D01*
X107492892Y-98833708D01*
X107482826Y-98841460D01*
X107350697Y-98966408D01*
X107342395Y-98976026D01*
X107238092Y-99124987D01*
X107231892Y-99136081D01*
X107159668Y-99302980D01*
X107155829Y-99315083D01*
X107118325Y-99494600D01*
X107117085Y-99504152D01*
X107117000Y-99507384D01*
X107117000Y-99727885D01*
X101508500Y-99727885D01*
X101508500Y-94261930D01*
X101528502Y-94193809D01*
X101582158Y-94147316D01*
X101652432Y-94137212D01*
X101717012Y-94166706D01*
X101729737Y-94179433D01*
X101830890Y-94296206D01*
X101846250Y-94313938D01*
X102018126Y-94456632D01*
X102211000Y-94569338D01*
X102419692Y-94649030D01*
X102424760Y-94650061D01*
X102424763Y-94650062D01*
X102484183Y-94662151D01*
X102638597Y-94693567D01*
X102643772Y-94693757D01*
X102643774Y-94693757D01*
X102856673Y-94701564D01*
X102856677Y-94701564D01*
X102861837Y-94701753D01*
X102866957Y-94701097D01*
X102866959Y-94701097D01*
X103078288Y-94674025D01*
X103078289Y-94674025D01*
X103083416Y-94673368D01*
X103120804Y-94662151D01*
X103292429Y-94610661D01*
X103292434Y-94610659D01*
X103297384Y-94609174D01*
X103497994Y-94510896D01*
X103679860Y-94381173D01*
X103838096Y-94223489D01*
X103878899Y-94166706D01*
X103965435Y-94046277D01*
X103968453Y-94042077D01*
X103974280Y-94030288D01*
X104065136Y-93846453D01*
X104065137Y-93846451D01*
X104067430Y-93841811D01*
X104132370Y-93628069D01*
X104161529Y-93406590D01*
X104163156Y-93340000D01*
X104144852Y-93117361D01*
X104090431Y-92900702D01*
X104001354Y-92695840D01*
X103961906Y-92634862D01*
X103882822Y-92512617D01*
X103882820Y-92512614D01*
X103880014Y-92508277D01*
X103729670Y-92343051D01*
X103725619Y-92339852D01*
X103725615Y-92339848D01*
X103558414Y-92207800D01*
X103558410Y-92207798D01*
X103554359Y-92204598D01*
X103513053Y-92181796D01*
X103463084Y-92131364D01*
X103448312Y-92061921D01*
X103473428Y-91995516D01*
X103500780Y-91968909D01*
X103560680Y-91926183D01*
X103679860Y-91841173D01*
X103838096Y-91683489D01*
X103878899Y-91626706D01*
X103965435Y-91506277D01*
X103968453Y-91502077D01*
X104067430Y-91301811D01*
X104132370Y-91088069D01*
X104161529Y-90866590D01*
X104161611Y-90863240D01*
X104163074Y-90803365D01*
X104163074Y-90803361D01*
X104163156Y-90800000D01*
X104144852Y-90577361D01*
X104090431Y-90360702D01*
X104001354Y-90155840D01*
X103961906Y-90094862D01*
X103882822Y-89972617D01*
X103882820Y-89972614D01*
X103880014Y-89968277D01*
X103729670Y-89803051D01*
X103725619Y-89799852D01*
X103725615Y-89799848D01*
X103558414Y-89667800D01*
X103558410Y-89667798D01*
X103554359Y-89664598D01*
X103513053Y-89641796D01*
X103463084Y-89591364D01*
X103448312Y-89521921D01*
X103473428Y-89455516D01*
X103500780Y-89428909D01*
X103544603Y-89397650D01*
X103679860Y-89301173D01*
X103838096Y-89143489D01*
X103878899Y-89086706D01*
X103965435Y-88966277D01*
X103968453Y-88962077D01*
X104067430Y-88761811D01*
X104132370Y-88548069D01*
X104161529Y-88326590D01*
X104163156Y-88260000D01*
X104144852Y-88037361D01*
X104090431Y-87820702D01*
X104001354Y-87615840D01*
X103961906Y-87554862D01*
X103882822Y-87432617D01*
X103882820Y-87432614D01*
X103880014Y-87428277D01*
X103729670Y-87263051D01*
X103725619Y-87259852D01*
X103725615Y-87259848D01*
X103558414Y-87127800D01*
X103558410Y-87127798D01*
X103554359Y-87124598D01*
X103513053Y-87101796D01*
X103463084Y-87051364D01*
X103448312Y-86981921D01*
X103473428Y-86915516D01*
X103500780Y-86888909D01*
X103544603Y-86857650D01*
X103679860Y-86761173D01*
X103838096Y-86603489D01*
X103878899Y-86546706D01*
X103965435Y-86426277D01*
X103968453Y-86422077D01*
X104067430Y-86221811D01*
X104132370Y-86008069D01*
X104161529Y-85786590D01*
X104163156Y-85720000D01*
X104144852Y-85497361D01*
X104090431Y-85280702D01*
X104001354Y-85075840D01*
X103961906Y-85014862D01*
X103882822Y-84892617D01*
X103882820Y-84892614D01*
X103880014Y-84888277D01*
X103729670Y-84723051D01*
X103725619Y-84719852D01*
X103725615Y-84719848D01*
X103558414Y-84587800D01*
X103558410Y-84587798D01*
X103554359Y-84584598D01*
X103513053Y-84561796D01*
X103463084Y-84511364D01*
X103448312Y-84441921D01*
X103473428Y-84375516D01*
X103500780Y-84348909D01*
X103544603Y-84317650D01*
X103679860Y-84221173D01*
X103838096Y-84063489D01*
X103878899Y-84006706D01*
X103965435Y-83886277D01*
X103968453Y-83882077D01*
X104067430Y-83681811D01*
X104123910Y-83495915D01*
X104130865Y-83473023D01*
X104130865Y-83473021D01*
X104132370Y-83468069D01*
X104161529Y-83246590D01*
X104161765Y-83236944D01*
X104163074Y-83183365D01*
X104163074Y-83183361D01*
X104163156Y-83180000D01*
X104144852Y-82957361D01*
X104090431Y-82740702D01*
X104001354Y-82535840D01*
X103928637Y-82423436D01*
X103882822Y-82352617D01*
X103882820Y-82352614D01*
X103880014Y-82348277D01*
X103729670Y-82183051D01*
X103725619Y-82179852D01*
X103725615Y-82179848D01*
X103558414Y-82047800D01*
X103558410Y-82047798D01*
X103554359Y-82044598D01*
X103513053Y-82021796D01*
X103463084Y-81971364D01*
X103448312Y-81901921D01*
X103473428Y-81835516D01*
X103500780Y-81808909D01*
X103557047Y-81768774D01*
X103679860Y-81681173D01*
X103838096Y-81523489D01*
X103845804Y-81512763D01*
X103965435Y-81346277D01*
X103968453Y-81342077D01*
X104067430Y-81141811D01*
X104120331Y-80967693D01*
X104130865Y-80933023D01*
X104130865Y-80933021D01*
X104132370Y-80928069D01*
X104161529Y-80706590D01*
X104163156Y-80640000D01*
X104144852Y-80417361D01*
X104090431Y-80200702D01*
X104001354Y-79995840D01*
X103961906Y-79934862D01*
X103882822Y-79812617D01*
X103882820Y-79812614D01*
X103880014Y-79808277D01*
X103729670Y-79643051D01*
X103725619Y-79639852D01*
X103725615Y-79639848D01*
X103558414Y-79507800D01*
X103558410Y-79507798D01*
X103554359Y-79504598D01*
X103513053Y-79481796D01*
X103463084Y-79431364D01*
X103448312Y-79361921D01*
X103473428Y-79295516D01*
X103500780Y-79268909D01*
X103565669Y-79222624D01*
X103679860Y-79141173D01*
X103691734Y-79129341D01*
X103771408Y-79049944D01*
X103838096Y-78983489D01*
X103878899Y-78926706D01*
X103965435Y-78806277D01*
X103968453Y-78802077D01*
X104067430Y-78601811D01*
X104103679Y-78482502D01*
X104130865Y-78393023D01*
X104130865Y-78393021D01*
X104132370Y-78388069D01*
X104161529Y-78166590D01*
X104161964Y-78148787D01*
X104163074Y-78103365D01*
X104163074Y-78103361D01*
X104163156Y-78100000D01*
X104144852Y-77877361D01*
X104090431Y-77660702D01*
X104001354Y-77455840D01*
X103918938Y-77328444D01*
X103882822Y-77272617D01*
X103882820Y-77272614D01*
X103880014Y-77268277D01*
X103729670Y-77103051D01*
X103725619Y-77099852D01*
X103725615Y-77099848D01*
X103558414Y-76967800D01*
X103558410Y-76967798D01*
X103554359Y-76964598D01*
X103513053Y-76941796D01*
X103463084Y-76891364D01*
X103448312Y-76821921D01*
X103473428Y-76755516D01*
X103500780Y-76728909D01*
X103544603Y-76697650D01*
X103679860Y-76601173D01*
X103838096Y-76443489D01*
X103878899Y-76386706D01*
X103965435Y-76266277D01*
X103968453Y-76262077D01*
X104067430Y-76061811D01*
X104132370Y-75848069D01*
X104161529Y-75626590D01*
X104163156Y-75560000D01*
X104144852Y-75337361D01*
X104090431Y-75120702D01*
X104001354Y-74915840D01*
X103961906Y-74854862D01*
X103882822Y-74732617D01*
X103882820Y-74732614D01*
X103880014Y-74728277D01*
X103729670Y-74563051D01*
X103725619Y-74559852D01*
X103725615Y-74559848D01*
X103558414Y-74427800D01*
X103558410Y-74427798D01*
X103554359Y-74424598D01*
X103513053Y-74401796D01*
X103463084Y-74351364D01*
X103448312Y-74281921D01*
X103473428Y-74215516D01*
X103500780Y-74188909D01*
X103544603Y-74157650D01*
X103679860Y-74061173D01*
X103838096Y-73903489D01*
X103878899Y-73846706D01*
X103965435Y-73726277D01*
X103968453Y-73722077D01*
X104067430Y-73521811D01*
X104132370Y-73308069D01*
X104161529Y-73086590D01*
X104163156Y-73020000D01*
X104144852Y-72797361D01*
X104090431Y-72580702D01*
X104001354Y-72375840D01*
X103961906Y-72314862D01*
X103882822Y-72192617D01*
X103882820Y-72192614D01*
X103880014Y-72188277D01*
X103729670Y-72023051D01*
X103725619Y-72019852D01*
X103725615Y-72019848D01*
X103558414Y-71887800D01*
X103558410Y-71887798D01*
X103554359Y-71884598D01*
X103513053Y-71861796D01*
X103463084Y-71811364D01*
X103448312Y-71741921D01*
X103473428Y-71675516D01*
X103500780Y-71648909D01*
X103544603Y-71617650D01*
X103679860Y-71521173D01*
X103838096Y-71363489D01*
X103878899Y-71306706D01*
X103965435Y-71186277D01*
X103968453Y-71182077D01*
X104067430Y-70981811D01*
X104132370Y-70768069D01*
X104161529Y-70546590D01*
X104163156Y-70480000D01*
X104144852Y-70257361D01*
X104090431Y-70040702D01*
X104001354Y-69835840D01*
X103961906Y-69774862D01*
X103882822Y-69652617D01*
X103882820Y-69652614D01*
X103880014Y-69648277D01*
X103729670Y-69483051D01*
X103725619Y-69479852D01*
X103725615Y-69479848D01*
X103558414Y-69347800D01*
X103558410Y-69347798D01*
X103554359Y-69344598D01*
X103513053Y-69321796D01*
X103463084Y-69271364D01*
X103448312Y-69201921D01*
X103473428Y-69135516D01*
X103500780Y-69108909D01*
X103544603Y-69077650D01*
X103679860Y-68981173D01*
X103838096Y-68823489D01*
X103878899Y-68766706D01*
X103965435Y-68646277D01*
X103968453Y-68642077D01*
X104067430Y-68441811D01*
X104132370Y-68228069D01*
X104161529Y-68006590D01*
X104163156Y-67940000D01*
X104144852Y-67717361D01*
X104090431Y-67500702D01*
X104001354Y-67295840D01*
X103961906Y-67234862D01*
X103882822Y-67112617D01*
X103882820Y-67112614D01*
X103880014Y-67108277D01*
X103729670Y-66943051D01*
X103725619Y-66939852D01*
X103725615Y-66939848D01*
X103558414Y-66807800D01*
X103558410Y-66807798D01*
X103554359Y-66804598D01*
X103513053Y-66781796D01*
X103463084Y-66731364D01*
X103448312Y-66661921D01*
X103473428Y-66595516D01*
X103500780Y-66568909D01*
X103544603Y-66537650D01*
X103679860Y-66441173D01*
X103838096Y-66283489D01*
X103878899Y-66226706D01*
X103965435Y-66106277D01*
X103968453Y-66102077D01*
X104067430Y-65901811D01*
X104132370Y-65688069D01*
X104161529Y-65466590D01*
X104163156Y-65400000D01*
X104144852Y-65177361D01*
X104090431Y-64960702D01*
X104001354Y-64755840D01*
X103961906Y-64694862D01*
X103882822Y-64572617D01*
X103882820Y-64572614D01*
X103880014Y-64568277D01*
X103729670Y-64403051D01*
X103725619Y-64399852D01*
X103725615Y-64399848D01*
X103558414Y-64267800D01*
X103558410Y-64267798D01*
X103554359Y-64264598D01*
X103513053Y-64241796D01*
X103463084Y-64191364D01*
X103448312Y-64121921D01*
X103473428Y-64055516D01*
X103500780Y-64028909D01*
X103544603Y-63997650D01*
X103679860Y-63901173D01*
X103838096Y-63743489D01*
X103878899Y-63686706D01*
X103965435Y-63566277D01*
X103968453Y-63562077D01*
X104067430Y-63361811D01*
X104132370Y-63148069D01*
X104161529Y-62926590D01*
X104163156Y-62860000D01*
X104144852Y-62637361D01*
X104090431Y-62420702D01*
X104001354Y-62215840D01*
X103961906Y-62154862D01*
X103882822Y-62032617D01*
X103882820Y-62032614D01*
X103880014Y-62028277D01*
X103729670Y-61863051D01*
X103725619Y-61859852D01*
X103725615Y-61859848D01*
X103558414Y-61727800D01*
X103558410Y-61727798D01*
X103554359Y-61724598D01*
X103513053Y-61701796D01*
X103463084Y-61651364D01*
X103448312Y-61581921D01*
X103473428Y-61515516D01*
X103500780Y-61488909D01*
X103544603Y-61457650D01*
X103679860Y-61361173D01*
X103838096Y-61203489D01*
X103878899Y-61146706D01*
X103965435Y-61026277D01*
X103968453Y-61022077D01*
X104067430Y-60821811D01*
X104132370Y-60608069D01*
X104161529Y-60386590D01*
X104163156Y-60320000D01*
X104144852Y-60097361D01*
X104090431Y-59880702D01*
X104001354Y-59675840D01*
X103961906Y-59614862D01*
X103882822Y-59492617D01*
X103882820Y-59492614D01*
X103880014Y-59488277D01*
X103729670Y-59323051D01*
X103725619Y-59319852D01*
X103725615Y-59319848D01*
X103637172Y-59250000D01*
X110000000Y-59250000D01*
X120750000Y-59250000D01*
X120750000Y-53000000D01*
X110000000Y-53000000D01*
X110000000Y-59250000D01*
X103637172Y-59250000D01*
X103558414Y-59187800D01*
X103558410Y-59187798D01*
X103554359Y-59184598D01*
X103513053Y-59161796D01*
X103463084Y-59111364D01*
X103448312Y-59041921D01*
X103473428Y-58975516D01*
X103500780Y-58948909D01*
X103544603Y-58917650D01*
X103679860Y-58821173D01*
X103838096Y-58663489D01*
X103878899Y-58606706D01*
X103965435Y-58486277D01*
X103968453Y-58482077D01*
X104067430Y-58281811D01*
X104132370Y-58068069D01*
X104161529Y-57846590D01*
X104163156Y-57780000D01*
X104144852Y-57557361D01*
X104090431Y-57340702D01*
X104001354Y-57135840D01*
X103961906Y-57074862D01*
X103882822Y-56952617D01*
X103882820Y-56952614D01*
X103880014Y-56948277D01*
X103729670Y-56783051D01*
X103725619Y-56779852D01*
X103725615Y-56779848D01*
X103558414Y-56647800D01*
X103558410Y-56647798D01*
X103554359Y-56644598D01*
X103513053Y-56621796D01*
X103463084Y-56571364D01*
X103448312Y-56501921D01*
X103473428Y-56435516D01*
X103500780Y-56408909D01*
X103544603Y-56377650D01*
X103679860Y-56281173D01*
X103838096Y-56123489D01*
X103878899Y-56066706D01*
X103965435Y-55946277D01*
X103968453Y-55942077D01*
X104067430Y-55741811D01*
X104132370Y-55528069D01*
X104161529Y-55306590D01*
X104163156Y-55240000D01*
X104144852Y-55017361D01*
X104090431Y-54800702D01*
X104001354Y-54595840D01*
X103961906Y-54534862D01*
X103882822Y-54412617D01*
X103882820Y-54412614D01*
X103880014Y-54408277D01*
X103876540Y-54404459D01*
X103876533Y-54404450D01*
X103732435Y-54246088D01*
X103701383Y-54182242D01*
X103709779Y-54111744D01*
X103754956Y-54056976D01*
X103781400Y-54043307D01*
X103888052Y-54003325D01*
X103903649Y-53994786D01*
X104005724Y-53918285D01*
X104018285Y-53905724D01*
X104094786Y-53803649D01*
X104103324Y-53788054D01*
X104148478Y-53667606D01*
X104152105Y-53652351D01*
X104157631Y-53601486D01*
X104158000Y-53594672D01*
X104158000Y-52972115D01*
X104153525Y-52956876D01*
X104152135Y-52955671D01*
X104144452Y-52954000D01*
X102672000Y-52954000D01*
X102603879Y-52933998D01*
X102557386Y-52880342D01*
X102546000Y-52828000D01*
X102546000Y-52572000D01*
X102566002Y-52503879D01*
X102619658Y-52457386D01*
X102672000Y-52446000D01*
X104139884Y-52446000D01*
X104155123Y-52441525D01*
X104156328Y-52440135D01*
X104157999Y-52432452D01*
X104157999Y-51805331D01*
X104157629Y-51798510D01*
X104152105Y-51747648D01*
X104148479Y-51732396D01*
X104103324Y-51611946D01*
X104094786Y-51596351D01*
X104067591Y-51560065D01*
X104042743Y-51493558D01*
X104057796Y-51424176D01*
X104107970Y-51373946D01*
X104168417Y-51358500D01*
X121750958Y-51358500D01*
X121819079Y-51378502D01*
G37*
%TD.AperFunction*%
%TD*%
M02*
