%TF.GenerationSoftware,KiCad,Pcbnew,(6.0.9)*%
%TF.CreationDate,2023-03-09T23:12:32-05:00*%
%TF.ProjectId,tinypico-nano-carrier,74696e79-7069-4636-9f2d-6e616e6f2d63,rev?*%
%TF.SameCoordinates,Original*%
%TF.FileFunction,Copper,L1,Top*%
%TF.FilePolarity,Positive*%
%FSLAX46Y46*%
G04 Gerber Fmt 4.6, Leading zero omitted, Abs format (unit mm)*
G04 Created by KiCad (PCBNEW (6.0.9)) date 2023-03-09 23:12:32*
%MOMM*%
%LPD*%
G01*
G04 APERTURE LIST*
G04 Aperture macros list*
%AMRoundRect*
0 Rectangle with rounded corners*
0 $1 Rounding radius*
0 $2 $3 $4 $5 $6 $7 $8 $9 X,Y pos of 4 corners*
0 Add a 4 corners polygon primitive as box body*
4,1,4,$2,$3,$4,$5,$6,$7,$8,$9,$2,$3,0*
0 Add four circle primitives for the rounded corners*
1,1,$1+$1,$2,$3*
1,1,$1+$1,$4,$5*
1,1,$1+$1,$6,$7*
1,1,$1+$1,$8,$9*
0 Add four rect primitives between the rounded corners*
20,1,$1+$1,$2,$3,$4,$5,0*
20,1,$1+$1,$4,$5,$6,$7,0*
20,1,$1+$1,$6,$7,$8,$9,0*
20,1,$1+$1,$8,$9,$2,$3,0*%
%AMFreePoly0*
4,1,14,-0.028365,2.164235,2.091636,0.044235,2.091650,0.044200,2.091650,-0.625800,2.091635,-0.625836,0.291635,-2.415835,0.291600,-2.415849,0.291564,-2.415835,-2.158435,0.044165,-2.158449,0.044200,-2.158435,0.044235,-0.028435,2.164235,-0.028400,2.164249,-0.028365,2.164235,-0.028365,2.164235,$1*%
G04 Aperture macros list end*
%TA.AperFunction,ComponentPad*%
%ADD10C,0.650000*%
%TD*%
%TA.AperFunction,ComponentPad*%
%ADD11O,0.900000X1.700000*%
%TD*%
%TA.AperFunction,ComponentPad*%
%ADD12O,0.900000X2.400000*%
%TD*%
%TA.AperFunction,ComponentPad*%
%ADD13R,1.700000X1.700000*%
%TD*%
%TA.AperFunction,ComponentPad*%
%ADD14O,1.700000X1.700000*%
%TD*%
%TA.AperFunction,SMDPad,CuDef*%
%ADD15FreePoly0,90.000000*%
%TD*%
%TA.AperFunction,SMDPad,CuDef*%
%ADD16R,1.200000X1.000000*%
%TD*%
%TA.AperFunction,SMDPad,CuDef*%
%ADD17R,1.000000X1.200000*%
%TD*%
%TA.AperFunction,SMDPad,CuDef*%
%ADD18RoundRect,0.200000X-0.275000X0.200000X-0.275000X-0.200000X0.275000X-0.200000X0.275000X0.200000X0*%
%TD*%
%TA.AperFunction,SMDPad,CuDef*%
%ADD19RoundRect,0.200000X0.200000X0.275000X-0.200000X0.275000X-0.200000X-0.275000X0.200000X-0.275000X0*%
%TD*%
%TA.AperFunction,ViaPad*%
%ADD20C,0.800000*%
%TD*%
%TA.AperFunction,Conductor*%
%ADD21C,0.250000*%
%TD*%
%TA.AperFunction,Conductor*%
%ADD22C,0.508000*%
%TD*%
%TA.AperFunction,Conductor*%
%ADD23C,0.200000*%
%TD*%
G04 APERTURE END LIST*
D10*
%TO.P,J3,A1,GND*%
%TO.N,GND*%
X109425000Y-95640000D03*
%TO.P,J3,A4,VBUS*%
%TO.N,+5V*%
X110275000Y-95640000D03*
%TO.P,J3,A5,CC1*%
%TO.N,Net-(J3-PadA5)*%
X111125000Y-95640000D03*
%TO.P,J3,A6,D+*%
%TO.N,/USB_D+*%
X111975000Y-95640000D03*
%TO.P,J3,A7,D-*%
%TO.N,/USB_D-*%
X112825000Y-95640000D03*
%TO.P,J3,A8,SBU1*%
%TO.N,unconnected-(J3-PadA8)*%
X113675000Y-95640000D03*
%TO.P,J3,A9,VBUS*%
%TO.N,+5V*%
X114525000Y-95640000D03*
%TO.P,J3,A12,GND*%
%TO.N,GND*%
X115375000Y-95640000D03*
%TO.P,J3,B1,GND*%
X115375000Y-96990000D03*
%TO.P,J3,B4,VBUS*%
%TO.N,+5V*%
X114525000Y-96990000D03*
%TO.P,J3,B5,CC2*%
%TO.N,Net-(J3-PadB5)*%
X113675000Y-96990000D03*
%TO.P,J3,B6,D+*%
%TO.N,/USB_D+*%
X112825000Y-96990000D03*
%TO.P,J3,B7,D-*%
%TO.N,/USB_D-*%
X111975000Y-96990000D03*
%TO.P,J3,B8,SBU2*%
%TO.N,unconnected-(J3-PadB8)*%
X111125000Y-96990000D03*
%TO.P,J3,B9,VBUS*%
%TO.N,+5V*%
X110275000Y-96990000D03*
%TO.P,J3,B12,GND*%
%TO.N,GND*%
X109425000Y-96990000D03*
D11*
%TO.P,J3,S1,SHIELD*%
X108075000Y-100000000D03*
%TO.P,J3,S2*%
%TO.N,N/C*%
X116725000Y-100000000D03*
D12*
%TO.P,J3,S3*%
X108075000Y-96620000D03*
%TO.P,J3,S4*%
X116725000Y-96620000D03*
%TD*%
D13*
%TO.P,J2,1,Pin_1*%
%TO.N,GND*%
X102800000Y-52700000D03*
D14*
%TO.P,J2,2,Pin_2*%
%TO.N,/GPIO35*%
X102800000Y-55240000D03*
%TO.P,J2,3,Pin_3*%
%TO.N,/GPIO34*%
X102800000Y-57780000D03*
%TO.P,J2,4,Pin_4*%
%TO.N,/GPIO33*%
X102800000Y-60320000D03*
%TO.P,J2,5,Pin_5*%
%TO.N,/GPIO32*%
X102800000Y-62860000D03*
%TO.P,J2,6,Pin_6*%
%TO.N,/GPIO25*%
X102800000Y-65400000D03*
%TO.P,J2,7,Pin_7*%
%TO.N,/GPIO26*%
X102800000Y-67940000D03*
%TO.P,J2,8,Pin_8*%
%TO.N,/GPIO27*%
X102800000Y-70480000D03*
%TO.P,J2,9,Pin_9*%
%TO.N,/GPIO15*%
X102800000Y-73020000D03*
%TO.P,J2,10,Pin_10*%
%TO.N,/GPIO14*%
X102800000Y-75560000D03*
%TO.P,J2,11,Pin_11*%
%TO.N,/GPIO13*%
X102800000Y-78100000D03*
%TO.P,J2,12,Pin_12*%
%TO.N,/GPIO12*%
X102800000Y-80640000D03*
%TO.P,J2,13,Pin_13*%
%TO.N,/GPIO2*%
X102800000Y-83180000D03*
%TO.P,J2,14,Pin_14*%
%TO.N,/GPIO4*%
X102800000Y-85720000D03*
%TO.P,J2,15,Pin_15*%
%TO.N,/EN*%
X102800000Y-88260000D03*
%TO.P,J2,16,Pin_16*%
%TO.N,/RESET*%
X102800000Y-90800000D03*
%TO.P,J2,17,Pin_17*%
%TO.N,+5V*%
X102800000Y-93340000D03*
%TD*%
D13*
%TO.P,J1,1,Pin_1*%
%TO.N,/GPIO36*%
X123120000Y-52700000D03*
D14*
%TO.P,J1,2,Pin_2*%
%TO.N,/GPIO37*%
X123120000Y-55240000D03*
%TO.P,J1,3,Pin_3*%
%TO.N,/GPIO38*%
X123120000Y-57780000D03*
%TO.P,J1,4,Pin_4*%
%TO.N,/GPIO39*%
X123120000Y-60320000D03*
%TO.P,J1,5,Pin_5*%
%TO.N,/TX*%
X123120000Y-62860000D03*
%TO.P,J1,6,Pin_6*%
%TO.N,/RX*%
X123120000Y-65400000D03*
%TO.P,J1,7,Pin_7*%
%TO.N,/GPIO9*%
X123120000Y-67940000D03*
%TO.P,J1,8,Pin_8*%
%TO.N,/GPIO0*%
X123120000Y-70480000D03*
%TO.P,J1,9,Pin_9*%
%TO.N,/GPIO21*%
X123120000Y-73020000D03*
%TO.P,J1,10,Pin_10*%
%TO.N,/GPIO22*%
X123120000Y-75560000D03*
%TO.P,J1,11,Pin_11*%
%TO.N,/GPIO5*%
X123120000Y-78100000D03*
%TO.P,J1,12,Pin_12*%
%TO.N,/GPIO18*%
X123120000Y-80640000D03*
%TO.P,J1,13,Pin_13*%
%TO.N,/GPIO19*%
X123120000Y-83180000D03*
%TO.P,J1,14,Pin_14*%
%TO.N,/GPIO23*%
X123120000Y-85720000D03*
%TO.P,J1,15,Pin_15*%
%TO.N,/STAT*%
X123120000Y-88260000D03*
%TO.P,J1,16,Pin_16*%
%TO.N,VBUS*%
X123120000Y-90800000D03*
%TO.P,J1,17,Pin_17*%
%TO.N,+3.3V*%
X123120000Y-93340000D03*
%TD*%
D15*
%TO.P,U1,2,GND*%
%TO.N,GND*%
X112164200Y-63506850D03*
D16*
%TO.P,U1,23,IO23*%
%TO.N,/GPIO23*%
X119100000Y-76410050D03*
%TO.P,U1,24,IO19*%
%TO.N,/GPIO19*%
X119100000Y-75140050D03*
%TO.P,U1,25,IO18*%
%TO.N,/GPIO18*%
X119100000Y-73870050D03*
%TO.P,U1,26,IO5*%
%TO.N,/GPIO5*%
X119100000Y-72600050D03*
%TO.P,U1,27,IO22*%
%TO.N,/GPIO22*%
X119100000Y-71330050D03*
%TO.P,U1,28,IO21*%
%TO.N,/GPIO21*%
X119100000Y-70060050D03*
%TO.P,U1,29,IO0*%
%TO.N,/GPIO0*%
X119100000Y-68790050D03*
%TO.P,U1,30,IO9*%
%TO.N,/GPIO9*%
X119100000Y-67520050D03*
%TO.P,U1,31,RX*%
%TO.N,/RX*%
X119100000Y-66250050D03*
%TO.P,U1,32,TX*%
%TO.N,/TX*%
X119100000Y-64980050D03*
%TO.P,U1,33,IO39*%
%TO.N,/GPIO39*%
X119100000Y-63710050D03*
%TO.P,U1,34,IO38*%
%TO.N,/GPIO38*%
X119100000Y-62440050D03*
%TO.P,U1,35,IO37*%
%TO.N,/GPIO37*%
X119100000Y-61170050D03*
%TO.P,U1,36,IO36*%
%TO.N,/GPIO36*%
X119100000Y-59900050D03*
%TO.P,U1,9,VBAT*%
%TO.N,VBUS*%
X106760000Y-76421350D03*
%TO.P,U1,10,IO2*%
%TO.N,/GPIO2*%
X106760000Y-75151350D03*
%TO.P,U1,11,IO4*%
%TO.N,/GPIO4*%
X106760000Y-73881350D03*
%TO.P,U1,12,IO12*%
%TO.N,/GPIO12*%
X106760000Y-72611350D03*
%TO.P,U1,13,IO13*%
%TO.N,/GPIO13*%
X106760000Y-71341350D03*
%TO.P,U1,14,IO14*%
%TO.N,/GPIO14*%
X106760000Y-70071350D03*
%TO.P,U1,15,IO15*%
%TO.N,/GPIO15*%
X106760000Y-68801350D03*
%TO.P,U1,16,IO27*%
%TO.N,/GPIO27*%
X106760000Y-67531350D03*
%TO.P,U1,17,IO26*%
%TO.N,/GPIO26*%
X106760000Y-66261350D03*
%TO.P,U1,18,IO25*%
%TO.N,/GPIO25*%
X106760000Y-64991350D03*
%TO.P,U1,19,IO32*%
%TO.N,/GPIO32*%
X106760000Y-63721350D03*
%TO.P,U1,20,IO33*%
%TO.N,/GPIO33*%
X106760000Y-62451350D03*
%TO.P,U1,21,IO34*%
%TO.N,/GPIO34*%
X106760000Y-61181350D03*
%TO.P,U1,22,IO35*%
%TO.N,/GPIO35*%
X106760000Y-59911350D03*
D17*
%TO.P,U1,8,3v3*%
%TO.N,+3.3V*%
X108475000Y-81085250D03*
%TO.P,U1,7,EN*%
%TO.N,/EN*%
X109745000Y-81085250D03*
%TO.P,U1,6,D+*%
%TO.N,/USB_D+*%
X111015000Y-81085250D03*
%TO.P,U1,5,D-*%
%TO.N,/USB_D-*%
X112285000Y-81085250D03*
%TO.P,U1,4,5V*%
%TO.N,+5V*%
X113555000Y-81085250D03*
%TO.P,U1,3,RESET*%
%TO.N,/RESET*%
X114825000Y-81085250D03*
%TO.P,U1,2,GND*%
%TO.N,GND*%
X116095000Y-81085250D03*
%TO.P,U1,1,STAT*%
%TO.N,/STAT*%
X117365000Y-81085250D03*
%TD*%
D18*
%TO.P,R2,1*%
%TO.N,GND*%
X110900000Y-91875000D03*
%TO.P,R2,2*%
%TO.N,Net-(J3-PadA5)*%
X110900000Y-93525000D03*
%TD*%
D19*
%TO.P,R1,1*%
%TO.N,GND*%
X119925000Y-98400000D03*
%TO.P,R1,2*%
%TO.N,Net-(J3-PadB5)*%
X118275000Y-98400000D03*
%TD*%
D20*
%TO.N,/RESET*%
X114500000Y-79700000D03*
X107400000Y-82300000D03*
%TO.N,/GPIO19*%
X117800000Y-75100000D03*
%TO.N,VBUS*%
X106600000Y-77700000D03*
%TO.N,+3.3V*%
X108500000Y-82400000D03*
%TO.N,GND*%
X114900000Y-86200000D03*
%TO.N,/USB_D-*%
X112400000Y-82400000D03*
%TO.N,/USB_D+*%
X111200000Y-82700000D03*
X112200000Y-94100000D03*
%TO.N,/USB_D-*%
X113093982Y-93653009D03*
%TO.N,GND*%
X109700000Y-91800000D03*
X119900000Y-97200000D03*
X115000000Y-62000000D03*
X114500000Y-65000000D03*
X110000000Y-65000000D03*
X111000000Y-61000000D03*
%TD*%
D21*
%TO.N,GND*%
X116095000Y-85005000D02*
X116095000Y-81085250D01*
X114900000Y-86200000D02*
X116095000Y-85005000D01*
%TO.N,/RESET*%
X114500000Y-80760250D02*
X114825000Y-81085250D01*
X114500000Y-79700000D02*
X114500000Y-80760250D01*
X107400000Y-86200000D02*
X102800000Y-90800000D01*
X107400000Y-82300000D02*
X107400000Y-86200000D01*
D22*
%TO.N,+5V*%
X110600000Y-87900000D02*
X108434619Y-90065381D01*
X108434619Y-90065381D02*
X108434619Y-93340000D01*
X113555000Y-84945000D02*
X113555000Y-81085250D01*
X110600000Y-87900000D02*
X113555000Y-84945000D01*
D21*
%TO.N,/STAT*%
X117365000Y-82505000D02*
X123120000Y-88260000D01*
X117365000Y-81085250D02*
X117365000Y-82505000D01*
%TO.N,/GPIO19*%
X119100000Y-75140050D02*
X117840050Y-75140050D01*
X117840050Y-75140050D02*
X117800000Y-75100000D01*
%TO.N,/GPIO23*%
X119100000Y-81700000D02*
X123120000Y-85720000D01*
X119100000Y-76410050D02*
X119100000Y-81700000D01*
%TO.N,/GPIO18*%
X120400000Y-77920000D02*
X123120000Y-80640000D01*
X120400000Y-74320050D02*
X120400000Y-77920000D01*
X119950000Y-73870050D02*
X120400000Y-74320050D01*
X119100000Y-73870050D02*
X119950000Y-73870050D01*
%TO.N,/GPIO5*%
X120850000Y-73500050D02*
X120850000Y-75830000D01*
X119100000Y-72600050D02*
X119950000Y-72600050D01*
X119950000Y-72600050D02*
X120850000Y-73500050D01*
X120850000Y-75830000D02*
X123120000Y-78100000D01*
%TO.N,/GPIO22*%
X121300000Y-72680050D02*
X121300000Y-73740000D01*
X119100000Y-71330050D02*
X119950000Y-71330050D01*
X119950000Y-71330050D02*
X121300000Y-72680050D01*
X121300000Y-73740000D02*
X123120000Y-75560000D01*
%TO.N,/GPIO21*%
X120160050Y-70060050D02*
X123120000Y-73020000D01*
X119100000Y-70060050D02*
X120160050Y-70060050D01*
%TO.N,/GPIO0*%
X121430050Y-68790050D02*
X123120000Y-70480000D01*
X119100000Y-68790050D02*
X121430050Y-68790050D01*
%TO.N,/GPIO9*%
X122700050Y-67520050D02*
X123120000Y-67940000D01*
X119100000Y-67520050D02*
X122700050Y-67520050D01*
%TO.N,/RX*%
X122269950Y-66250050D02*
X123120000Y-65400000D01*
X119100000Y-66250050D02*
X122269950Y-66250050D01*
%TO.N,/TX*%
X120999950Y-64980050D02*
X123120000Y-62860000D01*
X119100000Y-64980050D02*
X120999950Y-64980050D01*
%TO.N,/GPIO39*%
X119729950Y-63710050D02*
X123120000Y-60320000D01*
X119100000Y-63710050D02*
X119729950Y-63710050D01*
%TO.N,/GPIO38*%
X119459950Y-62440050D02*
X121800000Y-60100000D01*
X121800000Y-60100000D02*
X121800000Y-59100000D01*
X121800000Y-59100000D02*
X123120000Y-57780000D01*
X119100000Y-62440050D02*
X119459950Y-62440050D01*
%TO.N,/GPIO37*%
X121325000Y-57035000D02*
X123120000Y-55240000D01*
X121325000Y-59795050D02*
X121325000Y-57035000D01*
X119950000Y-61170050D02*
X121325000Y-59795050D01*
X119100000Y-61170050D02*
X119950000Y-61170050D01*
%TO.N,/GPIO36*%
X120875000Y-54945000D02*
X123120000Y-52700000D01*
X119100000Y-59900050D02*
X120276728Y-59900050D01*
X120276728Y-59900050D02*
X120875000Y-59301778D01*
X120875000Y-59301778D02*
X120875000Y-54945000D01*
D22*
%TO.N,+3.3V*%
X108475000Y-82375000D02*
X108500000Y-82400000D01*
X108475000Y-81085250D02*
X108475000Y-82375000D01*
%TO.N,VBUS*%
X106760000Y-77540000D02*
X106600000Y-77700000D01*
X106760000Y-76421350D02*
X106760000Y-77540000D01*
D21*
%TO.N,/EN*%
X109350000Y-80110250D02*
X109745000Y-80505250D01*
X107600000Y-80110250D02*
X109350000Y-80110250D01*
X109745000Y-80505250D02*
X109745000Y-81085250D01*
X104002081Y-88260000D02*
X104425000Y-87837081D01*
X104425000Y-87837081D02*
X104425000Y-83285250D01*
X102800000Y-88260000D02*
X104002081Y-88260000D01*
X104425000Y-83285250D02*
X107600000Y-80110250D01*
D23*
%TO.N,/USB_D+*%
X111200000Y-81270250D02*
X111015000Y-81085250D01*
X111200000Y-82700000D02*
X111200000Y-81270250D01*
%TO.N,/USB_D-*%
X112285000Y-81085250D02*
X112285000Y-82285000D01*
X112285000Y-82285000D02*
X112400000Y-82400000D01*
X112825000Y-96075000D02*
X112200000Y-96700000D01*
X112825000Y-95640000D02*
X112825000Y-96075000D01*
X113093982Y-93653009D02*
X113093982Y-95371018D01*
X113093982Y-95371018D02*
X112825000Y-95640000D01*
%TO.N,/USB_D+*%
X112200000Y-95415000D02*
X111975000Y-95640000D01*
X112200000Y-94100000D02*
X112200000Y-95415000D01*
D21*
%TO.N,Net-(J3-PadA5)*%
X111125000Y-93750000D02*
X110900000Y-93525000D01*
X111125000Y-95640000D02*
X111125000Y-93750000D01*
D22*
%TO.N,+5V*%
X114525000Y-91825000D02*
X110600000Y-87900000D01*
X114525000Y-95640000D02*
X114525000Y-91825000D01*
X102800000Y-93340000D02*
X108434619Y-93340000D01*
X108434619Y-93340000D02*
X110275000Y-95180381D01*
X110275000Y-95180381D02*
X110275000Y-95640000D01*
D21*
%TO.N,/GPIO12*%
X105785000Y-77115000D02*
X105785000Y-72715000D01*
X105785000Y-72715000D02*
X105888650Y-72611350D01*
X102800000Y-80100000D02*
X105785000Y-77115000D01*
X102800000Y-80640000D02*
X102800000Y-80100000D01*
X105888650Y-72611350D02*
X106760000Y-72611350D01*
%TO.N,/GPIO2*%
X107735000Y-77665000D02*
X107735000Y-75435000D01*
X103585000Y-81815000D02*
X107735000Y-77665000D01*
X107735000Y-75435000D02*
X107400000Y-75100000D01*
X103185000Y-81815000D02*
X103585000Y-81815000D01*
X102800000Y-82200000D02*
X103185000Y-81815000D01*
X107400000Y-75100000D02*
X106811350Y-75100000D01*
X102800000Y-83180000D02*
X102800000Y-82200000D01*
X106811350Y-75100000D02*
X106760000Y-75151350D01*
%TO.N,/GPIO4*%
X103975000Y-84545000D02*
X102800000Y-85720000D01*
X103975000Y-82325000D02*
X103975000Y-84545000D01*
X108185000Y-74685000D02*
X108185000Y-78115000D01*
X108185000Y-78115000D02*
X103975000Y-82325000D01*
X107381350Y-73881350D02*
X108185000Y-74685000D01*
X106760000Y-73881350D02*
X107381350Y-73881350D01*
%TO.N,GND*%
X110900000Y-91875000D02*
X109775000Y-91875000D01*
%TO.N,Net-(J3-PadB5)*%
X118020000Y-98145000D02*
X118275000Y-98400000D01*
X114370381Y-98145000D02*
X118020000Y-98145000D01*
X113675000Y-97449619D02*
X114370381Y-98145000D01*
X113675000Y-96990000D02*
X113675000Y-97449619D01*
D22*
%TO.N,+5V*%
X110275000Y-95640000D02*
X110275000Y-96990000D01*
X114525000Y-96990000D02*
X114525000Y-95640000D01*
D21*
%TO.N,GND*%
X119900000Y-97200000D02*
X119900000Y-98375000D01*
X109425000Y-95640000D02*
X109425000Y-96990000D01*
X115375000Y-95640000D02*
X115375000Y-96990000D01*
X111493150Y-63506850D02*
X112164200Y-63506850D01*
X110000000Y-65000000D02*
X111493150Y-63506850D01*
X113006850Y-63506850D02*
X112164200Y-63506850D01*
X114500000Y-65000000D02*
X113006850Y-63506850D01*
X113493150Y-63506850D02*
X112164200Y-63506850D01*
X115000000Y-62000000D02*
X113493150Y-63506850D01*
X112164200Y-62164200D02*
X112164200Y-63506850D01*
X111000000Y-61000000D02*
X112164200Y-62164200D01*
%TO.N,/GPIO13*%
X105000000Y-72500000D02*
X106158650Y-71341350D01*
X106158650Y-71341350D02*
X106760000Y-71341350D01*
X102800000Y-78100000D02*
X105000000Y-75900000D01*
X105000000Y-75900000D02*
X105000000Y-72500000D01*
%TO.N,/GPIO14*%
X105928650Y-70071350D02*
X106760000Y-70071350D01*
X104500000Y-73860000D02*
X104500000Y-71500000D01*
X104500000Y-71500000D02*
X105928650Y-70071350D01*
X102800000Y-75560000D02*
X104500000Y-73860000D01*
%TO.N,/GPIO15*%
X102800000Y-72281350D02*
X106280000Y-68801350D01*
X106280000Y-68801350D02*
X106760000Y-68801350D01*
X102800000Y-73020000D02*
X102800000Y-72281350D01*
%TO.N,/GPIO27*%
X105748650Y-67531350D02*
X106760000Y-67531350D01*
X102800000Y-70480000D02*
X105748650Y-67531350D01*
%TO.N,/GPIO26*%
X106000000Y-66000000D02*
X106498650Y-66000000D01*
X104060000Y-67940000D02*
X106000000Y-66000000D01*
X102800000Y-67940000D02*
X104060000Y-67940000D01*
X106498650Y-66000000D02*
X106760000Y-66261350D01*
%TO.N,/GPIO25*%
X106351350Y-65400000D02*
X106760000Y-64991350D01*
X102800000Y-65400000D02*
X106351350Y-65400000D01*
%TO.N,/GPIO32*%
X103661350Y-63721350D02*
X106760000Y-63721350D01*
X102800000Y-62860000D02*
X103661350Y-63721350D01*
%TO.N,/GPIO33*%
X104931350Y-62451350D02*
X106760000Y-62451350D01*
X102800000Y-60320000D02*
X104931350Y-62451350D01*
%TO.N,/GPIO34*%
X106760000Y-61181350D02*
X106201350Y-61181350D01*
X102800000Y-57780000D02*
X106201350Y-61181350D01*
%TO.N,/GPIO35*%
X106760000Y-59200000D02*
X106760000Y-59911350D01*
X102800000Y-55240000D02*
X106760000Y-59200000D01*
%TD*%
M02*
