%TF.GenerationSoftware,KiCad,Pcbnew,(6.0.9)*%
%TF.CreationDate,2023-03-11T12:53:36-05:00*%
%TF.ProjectId,tinypico-nano-carrier,74696e79-7069-4636-9f2d-6e616e6f2d63,rev?*%
%TF.SameCoordinates,Original*%
%TF.FileFunction,Legend,Top*%
%TF.FilePolarity,Positive*%
%FSLAX46Y46*%
G04 Gerber Fmt 4.6, Leading zero omitted, Abs format (unit mm)*
G04 Created by KiCad (PCBNEW (6.0.9)) date 2023-03-11 12:53:36*
%MOMM*%
%LPD*%
G01*
G04 APERTURE LIST*
%ADD10C,0.062500*%
%ADD11C,0.200000*%
%ADD12C,0.150000*%
%ADD13C,0.250000*%
%ADD14C,0.120000*%
G04 APERTURE END LIST*
D10*
X123000000Y-66971428D02*
X122800000Y-66685714D01*
X122657142Y-66971428D02*
X122657142Y-66371428D01*
X122885714Y-66371428D01*
X122942857Y-66400000D01*
X122971428Y-66428571D01*
X123000000Y-66485714D01*
X123000000Y-66571428D01*
X122971428Y-66628571D01*
X122942857Y-66657142D01*
X122885714Y-66685714D01*
X122657142Y-66685714D01*
X123200000Y-66371428D02*
X123600000Y-66971428D01*
X123600000Y-66371428D02*
X123200000Y-66971428D01*
X122614285Y-53671428D02*
X122985714Y-53671428D01*
X122785714Y-53900000D01*
X122871428Y-53900000D01*
X122928571Y-53928571D01*
X122957142Y-53957142D01*
X122985714Y-54014285D01*
X122985714Y-54157142D01*
X122957142Y-54214285D01*
X122928571Y-54242857D01*
X122871428Y-54271428D01*
X122700000Y-54271428D01*
X122642857Y-54242857D01*
X122614285Y-54214285D01*
X123500000Y-53671428D02*
X123385714Y-53671428D01*
X123328571Y-53700000D01*
X123300000Y-53728571D01*
X123242857Y-53814285D01*
X123214285Y-53928571D01*
X123214285Y-54157142D01*
X123242857Y-54214285D01*
X123271428Y-54242857D01*
X123328571Y-54271428D01*
X123442857Y-54271428D01*
X123500000Y-54242857D01*
X123528571Y-54214285D01*
X123557142Y-54157142D01*
X123557142Y-54014285D01*
X123528571Y-53957142D01*
X123500000Y-53928571D01*
X123442857Y-53900000D01*
X123328571Y-53900000D01*
X123271428Y-53928571D01*
X123242857Y-53957142D01*
X123214285Y-54014285D01*
X122642857Y-74048571D02*
X122671428Y-74020000D01*
X122728571Y-73991428D01*
X122871428Y-73991428D01*
X122928571Y-74020000D01*
X122957142Y-74048571D01*
X122985714Y-74105714D01*
X122985714Y-74162857D01*
X122957142Y-74248571D01*
X122614285Y-74591428D01*
X122985714Y-74591428D01*
X123557142Y-74591428D02*
X123214285Y-74591428D01*
X123385714Y-74591428D02*
X123385714Y-73991428D01*
X123328571Y-74077142D01*
X123271428Y-74134285D01*
X123214285Y-74162857D01*
X122214285Y-94311428D02*
X122585714Y-94311428D01*
X122385714Y-94540000D01*
X122471428Y-94540000D01*
X122528571Y-94568571D01*
X122557142Y-94597142D01*
X122585714Y-94654285D01*
X122585714Y-94797142D01*
X122557142Y-94854285D01*
X122528571Y-94882857D01*
X122471428Y-94911428D01*
X122300000Y-94911428D01*
X122242857Y-94882857D01*
X122214285Y-94854285D01*
X122842857Y-94854285D02*
X122871428Y-94882857D01*
X122842857Y-94911428D01*
X122814285Y-94882857D01*
X122842857Y-94854285D01*
X122842857Y-94911428D01*
X123071428Y-94311428D02*
X123442857Y-94311428D01*
X123242857Y-94540000D01*
X123328571Y-94540000D01*
X123385714Y-94568571D01*
X123414285Y-94597142D01*
X123442857Y-94654285D01*
X123442857Y-94797142D01*
X123414285Y-94854285D01*
X123385714Y-94882857D01*
X123328571Y-94911428D01*
X123157142Y-94911428D01*
X123100000Y-94882857D01*
X123071428Y-94854285D01*
X123614285Y-94311428D02*
X123814285Y-94911428D01*
X124014285Y-94311428D01*
X122614285Y-56211428D02*
X122985714Y-56211428D01*
X122785714Y-56440000D01*
X122871428Y-56440000D01*
X122928571Y-56468571D01*
X122957142Y-56497142D01*
X122985714Y-56554285D01*
X122985714Y-56697142D01*
X122957142Y-56754285D01*
X122928571Y-56782857D01*
X122871428Y-56811428D01*
X122700000Y-56811428D01*
X122642857Y-56782857D01*
X122614285Y-56754285D01*
X123185714Y-56211428D02*
X123585714Y-56211428D01*
X123328571Y-56811428D01*
X123071428Y-71451428D02*
X123128571Y-71451428D01*
X123185714Y-71480000D01*
X123214285Y-71508571D01*
X123242857Y-71565714D01*
X123271428Y-71680000D01*
X123271428Y-71822857D01*
X123242857Y-71937142D01*
X123214285Y-71994285D01*
X123185714Y-72022857D01*
X123128571Y-72051428D01*
X123071428Y-72051428D01*
X123014285Y-72022857D01*
X122985714Y-71994285D01*
X122957142Y-71937142D01*
X122928571Y-71822857D01*
X122928571Y-71680000D01*
X122957142Y-71565714D01*
X122985714Y-71508571D01*
X123014285Y-71480000D01*
X123071428Y-71451428D01*
X122614285Y-61291428D02*
X122985714Y-61291428D01*
X122785714Y-61520000D01*
X122871428Y-61520000D01*
X122928571Y-61548571D01*
X122957142Y-61577142D01*
X122985714Y-61634285D01*
X122985714Y-61777142D01*
X122957142Y-61834285D01*
X122928571Y-61862857D01*
X122871428Y-61891428D01*
X122700000Y-61891428D01*
X122642857Y-61862857D01*
X122614285Y-61834285D01*
X123271428Y-61891428D02*
X123385714Y-61891428D01*
X123442857Y-61862857D01*
X123471428Y-61834285D01*
X123528571Y-61748571D01*
X123557142Y-61634285D01*
X123557142Y-61405714D01*
X123528571Y-61348571D01*
X123500000Y-61320000D01*
X123442857Y-61291428D01*
X123328571Y-61291428D01*
X123271428Y-61320000D01*
X123242857Y-61348571D01*
X123214285Y-61405714D01*
X123214285Y-61548571D01*
X123242857Y-61605714D01*
X123271428Y-61634285D01*
X123328571Y-61662857D01*
X123442857Y-61662857D01*
X123500000Y-61634285D01*
X123528571Y-61605714D01*
X123557142Y-61548571D01*
X122642857Y-76588571D02*
X122671428Y-76560000D01*
X122728571Y-76531428D01*
X122871428Y-76531428D01*
X122928571Y-76560000D01*
X122957142Y-76588571D01*
X122985714Y-76645714D01*
X122985714Y-76702857D01*
X122957142Y-76788571D01*
X122614285Y-77131428D01*
X122985714Y-77131428D01*
X123214285Y-76588571D02*
X123242857Y-76560000D01*
X123300000Y-76531428D01*
X123442857Y-76531428D01*
X123500000Y-76560000D01*
X123528571Y-76588571D01*
X123557142Y-76645714D01*
X123557142Y-76702857D01*
X123528571Y-76788571D01*
X123185714Y-77131428D01*
X123557142Y-77131428D01*
X122985714Y-82211428D02*
X122642857Y-82211428D01*
X122814285Y-82211428D02*
X122814285Y-81611428D01*
X122757142Y-81697142D01*
X122700000Y-81754285D01*
X122642857Y-81782857D01*
X123328571Y-81868571D02*
X123271428Y-81840000D01*
X123242857Y-81811428D01*
X123214285Y-81754285D01*
X123214285Y-81725714D01*
X123242857Y-81668571D01*
X123271428Y-81640000D01*
X123328571Y-81611428D01*
X123442857Y-81611428D01*
X123500000Y-81640000D01*
X123528571Y-81668571D01*
X123557142Y-81725714D01*
X123557142Y-81754285D01*
X123528571Y-81811428D01*
X123500000Y-81840000D01*
X123442857Y-81868571D01*
X123328571Y-81868571D01*
X123271428Y-81897142D01*
X123242857Y-81925714D01*
X123214285Y-81982857D01*
X123214285Y-82097142D01*
X123242857Y-82154285D01*
X123271428Y-82182857D01*
X123328571Y-82211428D01*
X123442857Y-82211428D01*
X123500000Y-82182857D01*
X123528571Y-82154285D01*
X123557142Y-82097142D01*
X123557142Y-81982857D01*
X123528571Y-81925714D01*
X123500000Y-81897142D01*
X123442857Y-81868571D01*
X122614285Y-58751428D02*
X122985714Y-58751428D01*
X122785714Y-58980000D01*
X122871428Y-58980000D01*
X122928571Y-59008571D01*
X122957142Y-59037142D01*
X122985714Y-59094285D01*
X122985714Y-59237142D01*
X122957142Y-59294285D01*
X122928571Y-59322857D01*
X122871428Y-59351428D01*
X122700000Y-59351428D01*
X122642857Y-59322857D01*
X122614285Y-59294285D01*
X123328571Y-59008571D02*
X123271428Y-58980000D01*
X123242857Y-58951428D01*
X123214285Y-58894285D01*
X123214285Y-58865714D01*
X123242857Y-58808571D01*
X123271428Y-58780000D01*
X123328571Y-58751428D01*
X123442857Y-58751428D01*
X123500000Y-58780000D01*
X123528571Y-58808571D01*
X123557142Y-58865714D01*
X123557142Y-58894285D01*
X123528571Y-58951428D01*
X123500000Y-58980000D01*
X123442857Y-59008571D01*
X123328571Y-59008571D01*
X123271428Y-59037142D01*
X123242857Y-59065714D01*
X123214285Y-59122857D01*
X123214285Y-59237142D01*
X123242857Y-59294285D01*
X123271428Y-59322857D01*
X123328571Y-59351428D01*
X123442857Y-59351428D01*
X123500000Y-59322857D01*
X123528571Y-59294285D01*
X123557142Y-59237142D01*
X123557142Y-59122857D01*
X123528571Y-59065714D01*
X123500000Y-59037142D01*
X123442857Y-59008571D01*
X122642857Y-63831428D02*
X122985714Y-63831428D01*
X122814285Y-64431428D02*
X122814285Y-63831428D01*
X123128571Y-63831428D02*
X123528571Y-64431428D01*
X123528571Y-63831428D02*
X123128571Y-64431428D01*
X122642857Y-86748571D02*
X122671428Y-86720000D01*
X122728571Y-86691428D01*
X122871428Y-86691428D01*
X122928571Y-86720000D01*
X122957142Y-86748571D01*
X122985714Y-86805714D01*
X122985714Y-86862857D01*
X122957142Y-86948571D01*
X122614285Y-87291428D01*
X122985714Y-87291428D01*
X123185714Y-86691428D02*
X123557142Y-86691428D01*
X123357142Y-86920000D01*
X123442857Y-86920000D01*
X123500000Y-86948571D01*
X123528571Y-86977142D01*
X123557142Y-87034285D01*
X123557142Y-87177142D01*
X123528571Y-87234285D01*
X123500000Y-87262857D01*
X123442857Y-87291428D01*
X123271428Y-87291428D01*
X123214285Y-87262857D01*
X123185714Y-87234285D01*
X122214285Y-89802857D02*
X122300000Y-89831428D01*
X122442857Y-89831428D01*
X122500000Y-89802857D01*
X122528571Y-89774285D01*
X122557142Y-89717142D01*
X122557142Y-89660000D01*
X122528571Y-89602857D01*
X122500000Y-89574285D01*
X122442857Y-89545714D01*
X122328571Y-89517142D01*
X122271428Y-89488571D01*
X122242857Y-89460000D01*
X122214285Y-89402857D01*
X122214285Y-89345714D01*
X122242857Y-89288571D01*
X122271428Y-89260000D01*
X122328571Y-89231428D01*
X122471428Y-89231428D01*
X122557142Y-89260000D01*
X122728571Y-89231428D02*
X123071428Y-89231428D01*
X122900000Y-89831428D02*
X122900000Y-89231428D01*
X123242857Y-89660000D02*
X123528571Y-89660000D01*
X123185714Y-89831428D02*
X123385714Y-89231428D01*
X123585714Y-89831428D01*
X123700000Y-89231428D02*
X124042857Y-89231428D01*
X123871428Y-89831428D02*
X123871428Y-89231428D01*
X122000000Y-91771428D02*
X122200000Y-92371428D01*
X122400000Y-91771428D01*
X122800000Y-92057142D02*
X122885714Y-92085714D01*
X122914285Y-92114285D01*
X122942857Y-92171428D01*
X122942857Y-92257142D01*
X122914285Y-92314285D01*
X122885714Y-92342857D01*
X122828571Y-92371428D01*
X122600000Y-92371428D01*
X122600000Y-91771428D01*
X122800000Y-91771428D01*
X122857142Y-91800000D01*
X122885714Y-91828571D01*
X122914285Y-91885714D01*
X122914285Y-91942857D01*
X122885714Y-92000000D01*
X122857142Y-92028571D01*
X122800000Y-92057142D01*
X122600000Y-92057142D01*
X123200000Y-91771428D02*
X123200000Y-92257142D01*
X123228571Y-92314285D01*
X123257142Y-92342857D01*
X123314285Y-92371428D01*
X123428571Y-92371428D01*
X123485714Y-92342857D01*
X123514285Y-92314285D01*
X123542857Y-92257142D01*
X123542857Y-91771428D01*
X123800000Y-92342857D02*
X123885714Y-92371428D01*
X124028571Y-92371428D01*
X124085714Y-92342857D01*
X124114285Y-92314285D01*
X124142857Y-92257142D01*
X124142857Y-92200000D01*
X124114285Y-92142857D01*
X124085714Y-92114285D01*
X124028571Y-92085714D01*
X123914285Y-92057142D01*
X123857142Y-92028571D01*
X123828571Y-92000000D01*
X123800000Y-91942857D01*
X123800000Y-91885714D01*
X123828571Y-91828571D01*
X123857142Y-91800000D01*
X123914285Y-91771428D01*
X124057142Y-91771428D01*
X124142857Y-91800000D01*
X122985714Y-84751428D02*
X122642857Y-84751428D01*
X122814285Y-84751428D02*
X122814285Y-84151428D01*
X122757142Y-84237142D01*
X122700000Y-84294285D01*
X122642857Y-84322857D01*
X123271428Y-84751428D02*
X123385714Y-84751428D01*
X123442857Y-84722857D01*
X123471428Y-84694285D01*
X123528571Y-84608571D01*
X123557142Y-84494285D01*
X123557142Y-84265714D01*
X123528571Y-84208571D01*
X123500000Y-84180000D01*
X123442857Y-84151428D01*
X123328571Y-84151428D01*
X123271428Y-84180000D01*
X123242857Y-84208571D01*
X123214285Y-84265714D01*
X123214285Y-84408571D01*
X123242857Y-84465714D01*
X123271428Y-84494285D01*
X123328571Y-84522857D01*
X123442857Y-84522857D01*
X123500000Y-84494285D01*
X123528571Y-84465714D01*
X123557142Y-84408571D01*
X122985714Y-69511428D02*
X123100000Y-69511428D01*
X123157142Y-69482857D01*
X123185714Y-69454285D01*
X123242857Y-69368571D01*
X123271428Y-69254285D01*
X123271428Y-69025714D01*
X123242857Y-68968571D01*
X123214285Y-68940000D01*
X123157142Y-68911428D01*
X123042857Y-68911428D01*
X122985714Y-68940000D01*
X122957142Y-68968571D01*
X122928571Y-69025714D01*
X122928571Y-69168571D01*
X122957142Y-69225714D01*
X122985714Y-69254285D01*
X123042857Y-69282857D01*
X123157142Y-69282857D01*
X123214285Y-69254285D01*
X123242857Y-69225714D01*
X123271428Y-69168571D01*
X123242857Y-79071428D02*
X122957142Y-79071428D01*
X122928571Y-79357142D01*
X122957142Y-79328571D01*
X123014285Y-79300000D01*
X123157142Y-79300000D01*
X123214285Y-79328571D01*
X123242857Y-79357142D01*
X123271428Y-79414285D01*
X123271428Y-79557142D01*
X123242857Y-79614285D01*
X123214285Y-79642857D01*
X123157142Y-79671428D01*
X123014285Y-79671428D01*
X122957142Y-79642857D01*
X122928571Y-79614285D01*
X102685714Y-94311428D02*
X102400000Y-94311428D01*
X102371428Y-94597142D01*
X102400000Y-94568571D01*
X102457142Y-94540000D01*
X102600000Y-94540000D01*
X102657142Y-94568571D01*
X102685714Y-94597142D01*
X102714285Y-94654285D01*
X102714285Y-94797142D01*
X102685714Y-94854285D01*
X102657142Y-94882857D01*
X102600000Y-94911428D01*
X102457142Y-94911428D01*
X102400000Y-94882857D01*
X102371428Y-94854285D01*
X102885714Y-94311428D02*
X103085714Y-94911428D01*
X103285714Y-94311428D01*
X102471428Y-92371428D02*
X102271428Y-92085714D01*
X102128571Y-92371428D02*
X102128571Y-91771428D01*
X102357142Y-91771428D01*
X102414285Y-91800000D01*
X102442857Y-91828571D01*
X102471428Y-91885714D01*
X102471428Y-91971428D01*
X102442857Y-92028571D01*
X102414285Y-92057142D01*
X102357142Y-92085714D01*
X102128571Y-92085714D01*
X102700000Y-92342857D02*
X102785714Y-92371428D01*
X102928571Y-92371428D01*
X102985714Y-92342857D01*
X103014285Y-92314285D01*
X103042857Y-92257142D01*
X103042857Y-92200000D01*
X103014285Y-92142857D01*
X102985714Y-92114285D01*
X102928571Y-92085714D01*
X102814285Y-92057142D01*
X102757142Y-92028571D01*
X102728571Y-92000000D01*
X102700000Y-91942857D01*
X102700000Y-91885714D01*
X102728571Y-91828571D01*
X102757142Y-91800000D01*
X102814285Y-91771428D01*
X102957142Y-91771428D01*
X103042857Y-91800000D01*
X103214285Y-91771428D02*
X103557142Y-91771428D01*
X103385714Y-92371428D02*
X103385714Y-91771428D01*
X102357142Y-89517142D02*
X102557142Y-89517142D01*
X102642857Y-89831428D02*
X102357142Y-89831428D01*
X102357142Y-89231428D01*
X102642857Y-89231428D01*
X102900000Y-89831428D02*
X102900000Y-89231428D01*
X103242857Y-89831428D01*
X103242857Y-89231428D01*
X102914285Y-86891428D02*
X102914285Y-87291428D01*
X102771428Y-86662857D02*
X102628571Y-87091428D01*
X103000000Y-87091428D01*
X102628571Y-84208571D02*
X102657142Y-84180000D01*
X102714285Y-84151428D01*
X102857142Y-84151428D01*
X102914285Y-84180000D01*
X102942857Y-84208571D01*
X102971428Y-84265714D01*
X102971428Y-84322857D01*
X102942857Y-84408571D01*
X102600000Y-84751428D01*
X102971428Y-84751428D01*
X102685714Y-82211428D02*
X102342857Y-82211428D01*
X102514285Y-82211428D02*
X102514285Y-81611428D01*
X102457142Y-81697142D01*
X102400000Y-81754285D01*
X102342857Y-81782857D01*
X102914285Y-81668571D02*
X102942857Y-81640000D01*
X103000000Y-81611428D01*
X103142857Y-81611428D01*
X103200000Y-81640000D01*
X103228571Y-81668571D01*
X103257142Y-81725714D01*
X103257142Y-81782857D01*
X103228571Y-81868571D01*
X102885714Y-82211428D01*
X103257142Y-82211428D01*
X102685714Y-79671428D02*
X102342857Y-79671428D01*
X102514285Y-79671428D02*
X102514285Y-79071428D01*
X102457142Y-79157142D01*
X102400000Y-79214285D01*
X102342857Y-79242857D01*
X102885714Y-79071428D02*
X103257142Y-79071428D01*
X103057142Y-79300000D01*
X103142857Y-79300000D01*
X103200000Y-79328571D01*
X103228571Y-79357142D01*
X103257142Y-79414285D01*
X103257142Y-79557142D01*
X103228571Y-79614285D01*
X103200000Y-79642857D01*
X103142857Y-79671428D01*
X102971428Y-79671428D01*
X102914285Y-79642857D01*
X102885714Y-79614285D01*
X102685714Y-77131428D02*
X102342857Y-77131428D01*
X102514285Y-77131428D02*
X102514285Y-76531428D01*
X102457142Y-76617142D01*
X102400000Y-76674285D01*
X102342857Y-76702857D01*
X103200000Y-76731428D02*
X103200000Y-77131428D01*
X103057142Y-76502857D02*
X102914285Y-76931428D01*
X103285714Y-76931428D01*
X102685714Y-74591428D02*
X102342857Y-74591428D01*
X102514285Y-74591428D02*
X102514285Y-73991428D01*
X102457142Y-74077142D01*
X102400000Y-74134285D01*
X102342857Y-74162857D01*
X103228571Y-73991428D02*
X102942857Y-73991428D01*
X102914285Y-74277142D01*
X102942857Y-74248571D01*
X103000000Y-74220000D01*
X103142857Y-74220000D01*
X103200000Y-74248571D01*
X103228571Y-74277142D01*
X103257142Y-74334285D01*
X103257142Y-74477142D01*
X103228571Y-74534285D01*
X103200000Y-74562857D01*
X103142857Y-74591428D01*
X103000000Y-74591428D01*
X102942857Y-74562857D01*
X102914285Y-74534285D01*
X102342857Y-71508571D02*
X102371428Y-71480000D01*
X102428571Y-71451428D01*
X102571428Y-71451428D01*
X102628571Y-71480000D01*
X102657142Y-71508571D01*
X102685714Y-71565714D01*
X102685714Y-71622857D01*
X102657142Y-71708571D01*
X102314285Y-72051428D01*
X102685714Y-72051428D01*
X102885714Y-71451428D02*
X103285714Y-71451428D01*
X103028571Y-72051428D01*
X102342857Y-68968571D02*
X102371428Y-68940000D01*
X102428571Y-68911428D01*
X102571428Y-68911428D01*
X102628571Y-68940000D01*
X102657142Y-68968571D01*
X102685714Y-69025714D01*
X102685714Y-69082857D01*
X102657142Y-69168571D01*
X102314285Y-69511428D01*
X102685714Y-69511428D01*
X103200000Y-68911428D02*
X103085714Y-68911428D01*
X103028571Y-68940000D01*
X103000000Y-68968571D01*
X102942857Y-69054285D01*
X102914285Y-69168571D01*
X102914285Y-69397142D01*
X102942857Y-69454285D01*
X102971428Y-69482857D01*
X103028571Y-69511428D01*
X103142857Y-69511428D01*
X103200000Y-69482857D01*
X103228571Y-69454285D01*
X103257142Y-69397142D01*
X103257142Y-69254285D01*
X103228571Y-69197142D01*
X103200000Y-69168571D01*
X103142857Y-69140000D01*
X103028571Y-69140000D01*
X102971428Y-69168571D01*
X102942857Y-69197142D01*
X102914285Y-69254285D01*
X102342857Y-66428571D02*
X102371428Y-66400000D01*
X102428571Y-66371428D01*
X102571428Y-66371428D01*
X102628571Y-66400000D01*
X102657142Y-66428571D01*
X102685714Y-66485714D01*
X102685714Y-66542857D01*
X102657142Y-66628571D01*
X102314285Y-66971428D01*
X102685714Y-66971428D01*
X103228571Y-66371428D02*
X102942857Y-66371428D01*
X102914285Y-66657142D01*
X102942857Y-66628571D01*
X103000000Y-66600000D01*
X103142857Y-66600000D01*
X103200000Y-66628571D01*
X103228571Y-66657142D01*
X103257142Y-66714285D01*
X103257142Y-66857142D01*
X103228571Y-66914285D01*
X103200000Y-66942857D01*
X103142857Y-66971428D01*
X103000000Y-66971428D01*
X102942857Y-66942857D01*
X102914285Y-66914285D01*
X102314285Y-63831428D02*
X102685714Y-63831428D01*
X102485714Y-64060000D01*
X102571428Y-64060000D01*
X102628571Y-64088571D01*
X102657142Y-64117142D01*
X102685714Y-64174285D01*
X102685714Y-64317142D01*
X102657142Y-64374285D01*
X102628571Y-64402857D01*
X102571428Y-64431428D01*
X102400000Y-64431428D01*
X102342857Y-64402857D01*
X102314285Y-64374285D01*
X102914285Y-63888571D02*
X102942857Y-63860000D01*
X103000000Y-63831428D01*
X103142857Y-63831428D01*
X103200000Y-63860000D01*
X103228571Y-63888571D01*
X103257142Y-63945714D01*
X103257142Y-64002857D01*
X103228571Y-64088571D01*
X102885714Y-64431428D01*
X103257142Y-64431428D01*
X102314285Y-61291428D02*
X102685714Y-61291428D01*
X102485714Y-61520000D01*
X102571428Y-61520000D01*
X102628571Y-61548571D01*
X102657142Y-61577142D01*
X102685714Y-61634285D01*
X102685714Y-61777142D01*
X102657142Y-61834285D01*
X102628571Y-61862857D01*
X102571428Y-61891428D01*
X102400000Y-61891428D01*
X102342857Y-61862857D01*
X102314285Y-61834285D01*
X102885714Y-61291428D02*
X103257142Y-61291428D01*
X103057142Y-61520000D01*
X103142857Y-61520000D01*
X103200000Y-61548571D01*
X103228571Y-61577142D01*
X103257142Y-61634285D01*
X103257142Y-61777142D01*
X103228571Y-61834285D01*
X103200000Y-61862857D01*
X103142857Y-61891428D01*
X102971428Y-61891428D01*
X102914285Y-61862857D01*
X102885714Y-61834285D01*
X102314285Y-58751428D02*
X102685714Y-58751428D01*
X102485714Y-58980000D01*
X102571428Y-58980000D01*
X102628571Y-59008571D01*
X102657142Y-59037142D01*
X102685714Y-59094285D01*
X102685714Y-59237142D01*
X102657142Y-59294285D01*
X102628571Y-59322857D01*
X102571428Y-59351428D01*
X102400000Y-59351428D01*
X102342857Y-59322857D01*
X102314285Y-59294285D01*
X103200000Y-58951428D02*
X103200000Y-59351428D01*
X103057142Y-58722857D02*
X102914285Y-59151428D01*
X103285714Y-59151428D01*
X102314285Y-56211428D02*
X102685714Y-56211428D01*
X102485714Y-56440000D01*
X102571428Y-56440000D01*
X102628571Y-56468571D01*
X102657142Y-56497142D01*
X102685714Y-56554285D01*
X102685714Y-56697142D01*
X102657142Y-56754285D01*
X102628571Y-56782857D01*
X102571428Y-56811428D01*
X102400000Y-56811428D01*
X102342857Y-56782857D01*
X102314285Y-56754285D01*
X103228571Y-56211428D02*
X102942857Y-56211428D01*
X102914285Y-56497142D01*
X102942857Y-56468571D01*
X103000000Y-56440000D01*
X103142857Y-56440000D01*
X103200000Y-56468571D01*
X103228571Y-56497142D01*
X103257142Y-56554285D01*
X103257142Y-56697142D01*
X103228571Y-56754285D01*
X103200000Y-56782857D01*
X103142857Y-56811428D01*
X103000000Y-56811428D01*
X102942857Y-56782857D01*
X102914285Y-56754285D01*
X102342857Y-53700000D02*
X102285714Y-53671428D01*
X102200000Y-53671428D01*
X102114285Y-53700000D01*
X102057142Y-53757142D01*
X102028571Y-53814285D01*
X102000000Y-53928571D01*
X102000000Y-54014285D01*
X102028571Y-54128571D01*
X102057142Y-54185714D01*
X102114285Y-54242857D01*
X102200000Y-54271428D01*
X102257142Y-54271428D01*
X102342857Y-54242857D01*
X102371428Y-54214285D01*
X102371428Y-54014285D01*
X102257142Y-54014285D01*
X102628571Y-54271428D02*
X102628571Y-53671428D01*
X102971428Y-54271428D01*
X102971428Y-53671428D01*
X103257142Y-54271428D02*
X103257142Y-53671428D01*
X103400000Y-53671428D01*
X103485714Y-53700000D01*
X103542857Y-53757142D01*
X103571428Y-53814285D01*
X103600000Y-53928571D01*
X103600000Y-54014285D01*
X103571428Y-54128571D01*
X103542857Y-54185714D01*
X103485714Y-54242857D01*
X103400000Y-54271428D01*
X103257142Y-54271428D01*
D11*
X107119047Y-51247380D02*
X107690476Y-51247380D01*
X107404761Y-52247380D02*
X107404761Y-51247380D01*
X108023809Y-52247380D02*
X108023809Y-51580714D01*
X108023809Y-51247380D02*
X107976190Y-51295000D01*
X108023809Y-51342619D01*
X108071428Y-51295000D01*
X108023809Y-51247380D01*
X108023809Y-51342619D01*
X108500000Y-51580714D02*
X108500000Y-52247380D01*
X108500000Y-51675952D02*
X108547619Y-51628333D01*
X108642857Y-51580714D01*
X108785714Y-51580714D01*
X108880952Y-51628333D01*
X108928571Y-51723571D01*
X108928571Y-52247380D01*
X109309523Y-51580714D02*
X109547619Y-52247380D01*
X109785714Y-51580714D02*
X109547619Y-52247380D01*
X109452380Y-52485476D01*
X109404761Y-52533095D01*
X109309523Y-52580714D01*
X110166666Y-52247380D02*
X110166666Y-51247380D01*
X110547619Y-51247380D01*
X110642857Y-51295000D01*
X110690476Y-51342619D01*
X110738095Y-51437857D01*
X110738095Y-51580714D01*
X110690476Y-51675952D01*
X110642857Y-51723571D01*
X110547619Y-51771190D01*
X110166666Y-51771190D01*
X111166666Y-52247380D02*
X111166666Y-51247380D01*
X112214285Y-52152142D02*
X112166666Y-52199761D01*
X112023809Y-52247380D01*
X111928571Y-52247380D01*
X111785714Y-52199761D01*
X111690476Y-52104523D01*
X111642857Y-52009285D01*
X111595238Y-51818809D01*
X111595238Y-51675952D01*
X111642857Y-51485476D01*
X111690476Y-51390238D01*
X111785714Y-51295000D01*
X111928571Y-51247380D01*
X112023809Y-51247380D01*
X112166666Y-51295000D01*
X112214285Y-51342619D01*
X112833333Y-51247380D02*
X113023809Y-51247380D01*
X113119047Y-51295000D01*
X113214285Y-51390238D01*
X113261904Y-51580714D01*
X113261904Y-51914047D01*
X113214285Y-52104523D01*
X113119047Y-52199761D01*
X113023809Y-52247380D01*
X112833333Y-52247380D01*
X112738095Y-52199761D01*
X112642857Y-52104523D01*
X112595238Y-51914047D01*
X112595238Y-51580714D01*
X112642857Y-51390238D01*
X112738095Y-51295000D01*
X112833333Y-51247380D01*
X114452380Y-52247380D02*
X114452380Y-51247380D01*
X115023809Y-52247380D01*
X115023809Y-51247380D01*
X115928571Y-52247380D02*
X115928571Y-51723571D01*
X115880952Y-51628333D01*
X115785714Y-51580714D01*
X115595238Y-51580714D01*
X115500000Y-51628333D01*
X115928571Y-52199761D02*
X115833333Y-52247380D01*
X115595238Y-52247380D01*
X115500000Y-52199761D01*
X115452380Y-52104523D01*
X115452380Y-52009285D01*
X115500000Y-51914047D01*
X115595238Y-51866428D01*
X115833333Y-51866428D01*
X115928571Y-51818809D01*
X116404761Y-51580714D02*
X116404761Y-52247380D01*
X116404761Y-51675952D02*
X116452380Y-51628333D01*
X116547619Y-51580714D01*
X116690476Y-51580714D01*
X116785714Y-51628333D01*
X116833333Y-51723571D01*
X116833333Y-52247380D01*
X117452380Y-52247380D02*
X117357142Y-52199761D01*
X117309523Y-52152142D01*
X117261904Y-52056904D01*
X117261904Y-51771190D01*
X117309523Y-51675952D01*
X117357142Y-51628333D01*
X117452380Y-51580714D01*
X117595238Y-51580714D01*
X117690476Y-51628333D01*
X117738095Y-51675952D01*
X117785714Y-51771190D01*
X117785714Y-52056904D01*
X117738095Y-52152142D01*
X117690476Y-52199761D01*
X117595238Y-52247380D01*
X117452380Y-52247380D01*
X110761904Y-53762142D02*
X110714285Y-53809761D01*
X110571428Y-53857380D01*
X110476190Y-53857380D01*
X110333333Y-53809761D01*
X110238095Y-53714523D01*
X110190476Y-53619285D01*
X110142857Y-53428809D01*
X110142857Y-53285952D01*
X110190476Y-53095476D01*
X110238095Y-53000238D01*
X110333333Y-52905000D01*
X110476190Y-52857380D01*
X110571428Y-52857380D01*
X110714285Y-52905000D01*
X110761904Y-52952619D01*
X111619047Y-53857380D02*
X111619047Y-53333571D01*
X111571428Y-53238333D01*
X111476190Y-53190714D01*
X111285714Y-53190714D01*
X111190476Y-53238333D01*
X111619047Y-53809761D02*
X111523809Y-53857380D01*
X111285714Y-53857380D01*
X111190476Y-53809761D01*
X111142857Y-53714523D01*
X111142857Y-53619285D01*
X111190476Y-53524047D01*
X111285714Y-53476428D01*
X111523809Y-53476428D01*
X111619047Y-53428809D01*
X112095238Y-53857380D02*
X112095238Y-53190714D01*
X112095238Y-53381190D02*
X112142857Y-53285952D01*
X112190476Y-53238333D01*
X112285714Y-53190714D01*
X112380952Y-53190714D01*
X112714285Y-53857380D02*
X112714285Y-53190714D01*
X112714285Y-53381190D02*
X112761904Y-53285952D01*
X112809523Y-53238333D01*
X112904761Y-53190714D01*
X113000000Y-53190714D01*
X113333333Y-53857380D02*
X113333333Y-53190714D01*
X113333333Y-52857380D02*
X113285714Y-52905000D01*
X113333333Y-52952619D01*
X113380952Y-52905000D01*
X113333333Y-52857380D01*
X113333333Y-52952619D01*
X114190476Y-53809761D02*
X114095238Y-53857380D01*
X113904761Y-53857380D01*
X113809523Y-53809761D01*
X113761904Y-53714523D01*
X113761904Y-53333571D01*
X113809523Y-53238333D01*
X113904761Y-53190714D01*
X114095238Y-53190714D01*
X114190476Y-53238333D01*
X114238095Y-53333571D01*
X114238095Y-53428809D01*
X113761904Y-53524047D01*
X114666666Y-53857380D02*
X114666666Y-53190714D01*
X114666666Y-53381190D02*
X114714285Y-53285952D01*
X114761904Y-53238333D01*
X114857142Y-53190714D01*
X114952380Y-53190714D01*
D12*
%TO.C,J1*%
X122666666Y-95662380D02*
X122666666Y-96376666D01*
X122619047Y-96519523D01*
X122523809Y-96614761D01*
X122380952Y-96662380D01*
X122285714Y-96662380D01*
X123666666Y-96662380D02*
X123095238Y-96662380D01*
X123380952Y-96662380D02*
X123380952Y-95662380D01*
X123285714Y-95805238D01*
X123190476Y-95900476D01*
X123095238Y-95948095D01*
%TO.C,J2*%
X102466666Y-95662380D02*
X102466666Y-96376666D01*
X102419047Y-96519523D01*
X102323809Y-96614761D01*
X102180952Y-96662380D01*
X102085714Y-96662380D01*
X102895238Y-95757619D02*
X102942857Y-95710000D01*
X103038095Y-95662380D01*
X103276190Y-95662380D01*
X103371428Y-95710000D01*
X103419047Y-95757619D01*
X103466666Y-95852857D01*
X103466666Y-95948095D01*
X103419047Y-96090952D01*
X102847619Y-96662380D01*
X103466666Y-96662380D01*
%TO.C,R1*%
X121375000Y-98739285D02*
X121125000Y-98382142D01*
X120946428Y-98739285D02*
X120946428Y-97989285D01*
X121232142Y-97989285D01*
X121303571Y-98025000D01*
X121339285Y-98060714D01*
X121375000Y-98132142D01*
X121375000Y-98239285D01*
X121339285Y-98310714D01*
X121303571Y-98346428D01*
X121232142Y-98382142D01*
X120946428Y-98382142D01*
X122089285Y-98739285D02*
X121660714Y-98739285D01*
X121875000Y-98739285D02*
X121875000Y-97989285D01*
X121803571Y-98096428D01*
X121732142Y-98167857D01*
X121660714Y-98203571D01*
%TO.C,J3*%
X112166666Y-99452380D02*
X112166666Y-100166666D01*
X112119047Y-100309523D01*
X112023809Y-100404761D01*
X111880952Y-100452380D01*
X111785714Y-100452380D01*
X112547619Y-99452380D02*
X113166666Y-99452380D01*
X112833333Y-99833333D01*
X112976190Y-99833333D01*
X113071428Y-99880952D01*
X113119047Y-99928571D01*
X113166666Y-100023809D01*
X113166666Y-100261904D01*
X113119047Y-100357142D01*
X113071428Y-100404761D01*
X112976190Y-100452380D01*
X112690476Y-100452380D01*
X112595238Y-100404761D01*
X112547619Y-100357142D01*
D13*
%TO.C,U1*%
X111832380Y-69204523D02*
X111832380Y-70232619D01*
X111892857Y-70353571D01*
X111953333Y-70414047D01*
X112074285Y-70474523D01*
X112316190Y-70474523D01*
X112437142Y-70414047D01*
X112497619Y-70353571D01*
X112558095Y-70232619D01*
X112558095Y-69204523D01*
X113828095Y-70474523D02*
X113102380Y-70474523D01*
X113465238Y-70474523D02*
X113465238Y-69204523D01*
X113344285Y-69385952D01*
X113223333Y-69506904D01*
X113102380Y-69567380D01*
D12*
%TO.C,R2*%
X111239285Y-90425000D02*
X110882142Y-90675000D01*
X111239285Y-90853571D02*
X110489285Y-90853571D01*
X110489285Y-90567857D01*
X110525000Y-90496428D01*
X110560714Y-90460714D01*
X110632142Y-90425000D01*
X110739285Y-90425000D01*
X110810714Y-90460714D01*
X110846428Y-90496428D01*
X110882142Y-90567857D01*
X110882142Y-90853571D01*
X110560714Y-90139285D02*
X110525000Y-90103571D01*
X110489285Y-90032142D01*
X110489285Y-89853571D01*
X110525000Y-89782142D01*
X110560714Y-89746428D01*
X110632142Y-89710714D01*
X110703571Y-89710714D01*
X110810714Y-89746428D01*
X111239285Y-90175000D01*
X111239285Y-89710714D01*
D14*
%TO.C,R1*%
X119337258Y-98922500D02*
X118862742Y-98922500D01*
X119337258Y-97877500D02*
X118862742Y-97877500D01*
D11*
%TO.C,J3*%
X116870000Y-98150000D02*
X116870000Y-98830000D01*
X107930000Y-101740000D02*
X116870000Y-101740000D01*
X116870000Y-101740000D02*
X116870000Y-101390000D01*
X107930000Y-98150000D02*
X107930000Y-98830000D01*
X107930000Y-101390000D02*
X107930000Y-101740000D01*
X109525000Y-94300000D02*
G75*
G03*
X109525000Y-94300000I-100000J0D01*
G01*
D14*
%TO.C,R2*%
X111422500Y-92462742D02*
X111422500Y-92937258D01*
X110377500Y-92462742D02*
X110377500Y-92937258D01*
%TD*%
M02*
