M48
; DRILL file {KiCad (6.0.9)} date Sat Mar 11 12:35:55 2023
; FORMAT={-:-/ absolute / inch / decimal}
; #@! TF.CreationDate,2023-03-11T12:35:55-05:00
; #@! TF.GenerationSoftware,Kicad,Pcbnew,(6.0.9)
; #@! TF.FileFunction,Plated,1,2,PTH
FMAT,2
INCH
; #@! TA.AperFunction,Plated,PTH,ViaDrill
T1C0.0157
; #@! TA.AperFunction,Plated,PTH,ComponentDrill
T2C0.0157
; #@! TA.AperFunction,Plated,PTH,ComponentDrill
T3C0.0236
; #@! TA.AperFunction,Plated,PTH,ComponentDrill
T4C0.0394
%
G90
G05
T1
X4.1969Y-3.0591
X4.2283Y-3.2402
X4.2717Y-3.2441
X4.3189Y-3.6142
X4.3307Y-2.5591
X4.3701Y-2.4016
X4.378Y-3.2559
X4.4173Y-3.7047
X4.4252Y-3.2441
X4.4525Y-3.6871
X4.5079Y-2.5591
X4.5079Y-3.1378
X4.5236Y-3.3937
X4.5276Y-2.4409
X4.6378Y-2.9567
X4.7205Y-3.8268
T2
X4.3081Y-3.7654
X4.3081Y-3.8185
X4.3415Y-3.7654
X4.3415Y-3.8185
X4.375Y-3.7654
X4.375Y-3.8185
X4.4085Y-3.7654
X4.4085Y-3.8185
X4.4419Y-3.7654
X4.4419Y-3.8185
X4.4754Y-3.7654
X4.4754Y-3.8185
X4.5089Y-3.7654
X4.5089Y-3.8185
X4.5423Y-3.7654
X4.5423Y-3.8185
T4
X4.0472Y-2.0748
X4.0472Y-2.1748
X4.0472Y-2.2748
X4.0472Y-2.3748
X4.0472Y-2.4748
X4.0472Y-2.5748
X4.0472Y-2.6748
X4.0472Y-2.7748
X4.0472Y-2.8748
X4.0472Y-2.9748
X4.0472Y-3.0748
X4.0472Y-3.1748
X4.0472Y-3.2748
X4.0472Y-3.3748
X4.0472Y-3.4748
X4.0472Y-3.5748
X4.0472Y-3.6748
X4.8472Y-2.0748
X4.8472Y-2.1748
X4.8472Y-2.2748
X4.8472Y-2.3748
X4.8472Y-2.4748
X4.8472Y-2.5748
X4.8472Y-2.6748
X4.8472Y-2.7748
X4.8472Y-2.8748
X4.8472Y-2.9748
X4.8472Y-3.0748
X4.8472Y-3.1748
X4.8472Y-3.2748
X4.8472Y-3.3748
X4.8472Y-3.4748
X4.8472Y-3.5748
X4.8472Y-3.6748
T3
G00X4.2549Y-3.7744
M15
G01X4.2549Y-3.8335
M16
G05
G00X4.2549Y-3.9213
M15
G01X4.2549Y-3.9528
M16
G05
G00X4.5955Y-3.7744
M15
G01X4.5955Y-3.8335
M16
G05
G00X4.5955Y-3.9213
M15
G01X4.5955Y-3.9528
M16
G05
T0
M30
