%TF.GenerationSoftware,KiCad,Pcbnew,(6.0.9)*%
%TF.CreationDate,2023-03-11T12:53:36-05:00*%
%TF.ProjectId,tinypico-nano-carrier,74696e79-7069-4636-9f2d-6e616e6f2d63,rev?*%
%TF.SameCoordinates,Original*%
%TF.FileFunction,Soldermask,Top*%
%TF.FilePolarity,Negative*%
%FSLAX46Y46*%
G04 Gerber Fmt 4.6, Leading zero omitted, Abs format (unit mm)*
G04 Created by KiCad (PCBNEW (6.0.9)) date 2023-03-11 12:53:36*
%MOMM*%
%LPD*%
G01*
G04 APERTURE LIST*
G04 Aperture macros list*
%AMRoundRect*
0 Rectangle with rounded corners*
0 $1 Rounding radius*
0 $2 $3 $4 $5 $6 $7 $8 $9 X,Y pos of 4 corners*
0 Add a 4 corners polygon primitive as box body*
4,1,4,$2,$3,$4,$5,$6,$7,$8,$9,$2,$3,0*
0 Add four circle primitives for the rounded corners*
1,1,$1+$1,$2,$3*
1,1,$1+$1,$4,$5*
1,1,$1+$1,$6,$7*
1,1,$1+$1,$8,$9*
0 Add four rect primitives between the rounded corners*
20,1,$1+$1,$2,$3,$4,$5,0*
20,1,$1+$1,$4,$5,$6,$7,0*
20,1,$1+$1,$6,$7,$8,$9,0*
20,1,$1+$1,$8,$9,$2,$3,0*%
%AMFreePoly0*
4,1,14,-0.028365,2.164235,2.091636,0.044235,2.091650,0.044200,2.091650,-0.625800,2.091635,-0.625836,0.291635,-2.415835,0.291600,-2.415849,0.291564,-2.415835,-2.158435,0.044165,-2.158449,0.044200,-2.158435,0.044235,-0.028435,2.164235,-0.028400,2.164249,-0.028365,2.164235,-0.028365,2.164235,$1*%
G04 Aperture macros list end*
%ADD10R,1.700000X1.700000*%
%ADD11O,1.700000X1.700000*%
%ADD12RoundRect,0.200000X0.200000X0.275000X-0.200000X0.275000X-0.200000X-0.275000X0.200000X-0.275000X0*%
%ADD13C,0.650000*%
%ADD14O,0.900000X1.700000*%
%ADD15O,0.900000X2.400000*%
%ADD16R,1.000000X1.200000*%
%ADD17FreePoly0,90.000000*%
%ADD18R,1.200000X1.000000*%
%ADD19RoundRect,0.200000X-0.275000X0.200000X-0.275000X-0.200000X0.275000X-0.200000X0.275000X0.200000X0*%
G04 APERTURE END LIST*
D10*
%TO.C,J1*%
X123120000Y-52700000D03*
D11*
X123120000Y-55240000D03*
X123120000Y-57780000D03*
X123120000Y-60320000D03*
X123120000Y-62860000D03*
X123120000Y-65400000D03*
X123120000Y-67940000D03*
X123120000Y-70480000D03*
X123120000Y-73020000D03*
X123120000Y-75560000D03*
X123120000Y-78100000D03*
X123120000Y-80640000D03*
X123120000Y-83180000D03*
X123120000Y-85720000D03*
X123120000Y-88260000D03*
X123120000Y-90800000D03*
X123120000Y-93340000D03*
%TD*%
D10*
%TO.C,J2*%
X102800000Y-52700000D03*
D11*
X102800000Y-55240000D03*
X102800000Y-57780000D03*
X102800000Y-60320000D03*
X102800000Y-62860000D03*
X102800000Y-65400000D03*
X102800000Y-67940000D03*
X102800000Y-70480000D03*
X102800000Y-73020000D03*
X102800000Y-75560000D03*
X102800000Y-78100000D03*
X102800000Y-80640000D03*
X102800000Y-83180000D03*
X102800000Y-85720000D03*
X102800000Y-88260000D03*
X102800000Y-90800000D03*
X102800000Y-93340000D03*
%TD*%
D12*
%TO.C,R1*%
X119925000Y-98400000D03*
X118275000Y-98400000D03*
%TD*%
D13*
%TO.C,J3*%
X109425000Y-95640000D03*
X110275000Y-95640000D03*
X111125000Y-95640000D03*
X111975000Y-95640000D03*
X112825000Y-95640000D03*
X113675000Y-95640000D03*
X114525000Y-95640000D03*
X115375000Y-95640000D03*
X115375000Y-96990000D03*
X114525000Y-96990000D03*
X113675000Y-96990000D03*
X112825000Y-96990000D03*
X111975000Y-96990000D03*
X111125000Y-96990000D03*
X110275000Y-96990000D03*
X109425000Y-96990000D03*
D14*
X108075000Y-100000000D03*
X116725000Y-100000000D03*
D15*
X108075000Y-96620000D03*
X116725000Y-96620000D03*
%TD*%
D16*
%TO.C,U1*%
X117365000Y-81085250D03*
D17*
X112164200Y-63506850D03*
D16*
X116095000Y-81085250D03*
X114825000Y-81085250D03*
X113555000Y-81085250D03*
X112285000Y-81085250D03*
X111015000Y-81085250D03*
X109745000Y-81085250D03*
X108475000Y-81085250D03*
D18*
X106760000Y-76421350D03*
X106760000Y-75151350D03*
X106760000Y-73881350D03*
X106760000Y-72611350D03*
X106760000Y-71341350D03*
X106760000Y-70071350D03*
X106760000Y-68801350D03*
X106760000Y-67531350D03*
X106760000Y-66261350D03*
X106760000Y-64991350D03*
X106760000Y-63721350D03*
X106760000Y-62451350D03*
X106760000Y-61181350D03*
X106760000Y-59911350D03*
X119100000Y-76410050D03*
X119100000Y-75140050D03*
X119100000Y-73870050D03*
X119100000Y-72600050D03*
X119100000Y-71330050D03*
X119100000Y-70060050D03*
X119100000Y-68790050D03*
X119100000Y-67520050D03*
X119100000Y-66250050D03*
X119100000Y-64980050D03*
X119100000Y-63710050D03*
X119100000Y-62440050D03*
X119100000Y-61170050D03*
X119100000Y-59900050D03*
%TD*%
D19*
%TO.C,R2*%
X110900000Y-91875000D03*
X110900000Y-93525000D03*
%TD*%
M02*
